<?xml version="1.0" encoding="UTF-8" standalone="no"?>
<svg
   xmlns:dc="http://purl.org/dc/elements/1.1/"
   xmlns:cc="http://creativecommons.org/ns#"
   xmlns:rdf="http://www.w3.org/1999/02/22-rdf-syntax-ns#"
   xmlns:svg="http://www.w3.org/2000/svg"
   xmlns="http://www.w3.org/2000/svg"
   xmlns:sodipodi="http://sodipodi.sourceforge.net/DTD/sodipodi-0.dtd"
   xmlns:inkscape="http://www.inkscape.org/namespaces/inkscape"
   width="1001"
   height="965"
   viewBox="1.5 1.5 163.29192 157.41913"
   version="1.0"
   id="svg2985"
   inkscape:version="0.91 r13725"
   sodipodi:docname="Venn_diagram_showing_Greek,_Latin_and_Cyrillic_letters.svg">
  <defs
     id="defs3109" />
  <sodipodi:namedview
     pagecolor="#ffffff"
     bordercolor="#666666"
     borderopacity="1"
     objecttolerance="10"
     gridtolerance="10"
     guidetolerance="10"
     id="namedview3107"
     showgrid="false"
     inkscape:zoom="0.25671644"
     inkscape:cx="-433.77054"
     inkscape:cy="431.64841"
     inkscape:window-width="1869"
     inkscape:window-height="1056"
     inkscape:window-x="51"
     inkscape:window-y="24"
     inkscape:window-maximized="1"
     inkscape:current-layer="layer1" />
  <metadata
     id="metadata2987">
    <rdf:RDF>
      <cc:Work
         rdf:about="">
        <dc:format>image/svg+xml</dc:format>
        <dc:type
           rdf:resource="http://purl.org/dc/dcmitype/StillImage" />
      </cc:Work>
    </rdf:RDF>
  </metadata>
  <flowRoot
     xml:space="preserve"
     id="flowRoot3152"
     style="fill:black;stroke:none;stroke-opacity:1;stroke-width:1px;stroke-linejoin:miter;stroke-linecap:butt;fill-opacity:1;font-family:Sans;font-style:normal;font-weight:normal;font-size:40px;line-height:125%;letter-spacing:0px;word-spacing:0px"><flowRegion
       id="flowRegion3154"><rect
         id="rect3156"
         width="236.50269"
         height="245.13417"
         x="852.79071"
         y="714.68695" /></flowRegion><flowPara
       id="flowPara3158" /></flowRoot>  <g
     id="g3164"
     transform="matrix(0.16312879,0,0,0.16312879,63.08623,48.114562)">
    <text
       id="text3166"
       style="font-size:90px;font-style:normal;font-weight:normal;text-align:start;text-anchor:start;fill:#000000;font-family:Calibri"
       y="9.6477766"
       x="75.957069"
       xml:space="preserve"><tspan
         style="font-size:56px;font-style:normal;font-family:Serif;-inkscape-font-specification:Serif"
         id="tspan3177" /></text>
    <text
       id="text3168"
       style="font-size:90px;font-style:normal;font-weight:normal;text-align:start;text-anchor:start;fill:#000000;font-family:Calibri"
       y="85.604843"
       x="48.900002"
       xml:space="preserve" />
  </g>
  <g
     id="g3183"
     transform="matrix(0.16312879,0,0,0.16312879,75.062374,42.524751)">
    <text
       id="text3185"
       style="font-size:75px;font-style:normal;font-weight:normal;text-align:start;text-anchor:start;fill:#000000;font-family:Times New Roman"
       y="70.009285"
       x="0"
       xml:space="preserve" />
    <text
       id="text3187"
       style="font-size:75px;font-style:normal;font-weight:normal;text-align:start;text-anchor:start;fill:#000000;font-family:Times New Roman"
       y="70.009285"
       x="50.099998"
       xml:space="preserve" />
  </g>
  <flowRoot
     xml:space="preserve"
     id="flowRoot3213"
     style="fill:black;stroke:none;stroke-opacity:1;stroke-width:1px;stroke-linejoin:miter;stroke-linecap:butt;fill-opacity:1;font-family:Sans;font-style:normal;font-weight:normal;font-size:40px;line-height:125%;letter-spacing:0px;word-spacing:0px"><flowRegion
       id="flowRegion3215"><rect
         id="rect3217"
         width="38.756474"
         height="50.352898"
         x="507.19101"
         y="234.12007" /></flowRegion><flowPara
       id="flowPara3219" /></flowRoot>  <g
     inkscape:groupmode="layer"
     id="layer1"
     inkscape:label="Layer 1"
     style="display:inline"
     sodipodi:insensitive="true">
    <ellipse
       id="ellipse3101"
       ry="51.12603"
       rx="51.020672"
       cy="58.695595"
       cx="108.44547"
       style="fill:none;stroke:#222222;stroke-width:1.79999995;stroke-linecap:round;stroke-linejoin:miter;stroke-miterlimit:4;stroke-dasharray:none;stroke-dashoffset:0;stroke-opacity:1" />
    <ellipse
       id="ellipse3103"
       ry="51.12603"
       rx="51.020672"
       cy="58.695595"
       cx="57.406773"
       style="fill:none;stroke:#222222;stroke-width:1.79999995;stroke-linecap:round;stroke-linejoin:miter;stroke-miterlimit:4;stroke-dasharray:none;stroke-dashoffset:0;stroke-opacity:1" />
    <ellipse
       id="ellipse3105"
       style="fill:none;stroke:#222222;stroke-width:1.79999995;stroke-linecap:round;stroke-linejoin:miter;stroke-miterlimit:4;stroke-dasharray:none;stroke-dashoffset:0;stroke-opacity:1"
       ry="51.12603"
       rx="51.020672"
       cy="102.77959"
       cx="82.769974" />
  </g>
  <g
     inkscape:groupmode="layer"
     id="layer2"
     inkscape:label="Layer 2"
     style="display:inline"
     sodipodi:insensitive="true">
    <path
       inkscape:connector-curvature="0"
       id="path4376"
       style="font-style:normal;font-variant:normal;font-weight:normal;font-stretch:normal;font-size:medium;line-height:125%;font-family:FreeSerif;-inkscape-font-specification:FreeSerif;letter-spacing:0px;word-spacing:0px;display:inline;opacity:1;fill:#000000;fill-opacity:1;stroke:none;stroke-width:1px;stroke-linecap:butt;stroke-linejoin:miter;stroke-opacity:1"
       d="m 95.447139,84.452426 q 0,0.295772 -0.0683,0.568795 -0.0683,0.273019 -0.27302,0.58017 -0.19339,0.307147 -0.52329,0.534667 -0.3299,0.216142 -0.898691,0.364029 -0.5688,0.147886 -1.31961,0.147886 -0.34128,0 -0.78494,-0.03413 l 0,2.070414 q 0,0.625676 0.19339,0.819065 0.20477,0.182013 0.87595,0.204767 l 0,0.216142 -3.185249,0 0,-0.216142 q 0.648419,-0.05688 0.796309,-0.238895 0.15926,-0.193389 0.15926,-0.91007 l 0,-4.925765 q 0,-0.614299 -0.15926,-0.784937 -0.15926,-0.170641 -0.796309,-0.238895 l 0,-0.216143 3.003239,0 q 0.51191,0 0.9897,0.102384 0.477791,0.09101 0.944201,0.307151 0.47778,0.216142 0.76218,0.637047 0.2844,0.42091 0.2844,1.012457 z m -3.867811,-1.251349 0,2.957731 q 0.39816,0.03413 0.64843,0.03413 1.979411,0 1.979411,-1.672254 0,-0.875947 -0.546051,-1.285477 -0.54604,-0.420909 -1.695,-0.420909 -0.22752,0 -0.30716,0.07963 -0.0796,0.07963 -0.0796,0.307151 z" />
    <path
       inkscape:connector-curvature="0"
       id="path4850"
       style="font-style:normal;font-variant:normal;font-weight:normal;font-stretch:normal;font-size:medium;line-height:125%;font-family:FreeSerif;-inkscape-font-specification:FreeSerif;letter-spacing:0px;word-spacing:0px;display:inline;opacity:1;fill:#ff0000;fill-opacity:1;stroke:none;stroke-width:1px;stroke-linecap:butt;stroke-linejoin:miter;stroke-opacity:1"
       d="m 103.40198,12.417207 0,0.216142 q -0.44366,0.03413 -0.76218,0.295774 -0.31853,0.25027 -0.80769,1.001079 l -1.68364,2.570953 0,2.206924 q 0,0.648426 0.20477,0.83044 0.20477,0.170639 0.96695,0.19339 l 0,0.216143 -3.481021,0 0,-0.216143 q 0.77356,-0.03413 0.95557,-0.216141 0.19339,-0.193391 0.19339,-0.932824 l 0,-1.979406 -1.49024,-2.184173 q -0.56879,-0.83044 -0.86457,-1.183093 -0.29577,-0.364029 -0.48916,-0.477788 -0.19339,-0.113759 -0.48917,-0.125135 l 0,-0.216142 3.18525,0 0,0.216142 q -0.80768,0.05688 -0.80768,0.341277 0,0.216143 0.19339,0.50054 l 1.68363,2.525449 1.626751,-2.570953 q 0.15927,-0.261646 0.15927,-0.420908 0,-0.204766 -0.17064,-0.284398 -0.17064,-0.07963 -0.6143,-0.09101 l 0,-0.216142 2.49132,0 z" />
    <path
       inkscape:connector-curvature="0"
       id="path4344"
       style="font-style:normal;font-variant:normal;font-weight:normal;font-stretch:normal;font-size:medium;line-height:125%;font-family:FreeSerif;-inkscape-font-specification:FreeSerif;letter-spacing:0px;word-spacing:0px;opacity:1;fill:#000000;fill-opacity:1;stroke:none;stroke-width:1px;stroke-linecap:butt;stroke-linejoin:miter;stroke-opacity:1"
       d="m 72.652505,78.193594 0,0.216142 -2.90085,0 0,-0.216142 q 0.45503,-0.01139 0.62567,-0.09101 0.17064,-0.07963 0.17064,-0.295772 0,-0.273023 -0.21614,-0.762183 l -0.46641,-1.092088 -2.98049,0 -0.52329,1.330979 q -0.091,0.238895 -0.091,0.443662 0,0.466412 0.77357,0.466412 l 0,0.216142 -2.25243,0 0,-0.216142 q 0.4209,-0.02274 0.64842,-0.318526 0.23889,-0.30715 0.76219,-1.547121 l 2.36618,-5.585569 0.22752,0 2.8326,6.461512 q 0.27302,0.625672 0.45504,0.796311 0.18201,0.17064 0.56879,0.193393 z m -5.57419,-2.707465 2.62783,0 -1.3196,-3.128369 -1.30823,3.128369 z" />
    <path
       inkscape:connector-curvature="0"
       id="path4350"
       style="font-style:normal;font-variant:normal;font-weight:normal;font-stretch:normal;font-size:medium;line-height:125%;font-family:FreeSerif;-inkscape-font-specification:FreeSerif;letter-spacing:0px;word-spacing:0px;opacity:1;fill:#000000;fill-opacity:1;stroke:none;stroke-width:1px;stroke-linecap:butt;stroke-linejoin:miter;stroke-opacity:1"
       d="m 24.656285,74.51049 -7.166814,0 3.526526,-7.667358 0.102383,0 3.537905,7.667358 z m -1.433363,-0.386781 -2.502698,-5.426305 -2.559578,5.426305 5.062276,0 z" />
    <path
       inkscape:connector-curvature="0"
       id="path4358"
       style="font-style:normal;font-variant:normal;font-weight:normal;font-stretch:normal;font-size:medium;line-height:125%;font-family:FreeSerif;-inkscape-font-specification:FreeSerif;letter-spacing:0px;word-spacing:0px;opacity:1;fill:#000000;fill-opacity:1;stroke:none;stroke-width:1px;stroke-linecap:butt;stroke-linejoin:miter;stroke-opacity:1"
       d="m 34.71872,27.708162 q 1.13759,1.126216 1.13759,2.752968 0,1.626755 -1.13759,2.764346 -1.13759,1.13759 -2.75297,1.13759 -1.61538,0 -2.75297,-1.13759 -1.13759,-1.137591 -1.13759,-2.764346 0,-1.626752 1.12622,-2.752968 1.13759,-1.137586 2.76434,-1.137586 1.62675,0 2.75297,1.137586 z m -0.091,2.764346 q 0,-0.819065 -0.2844,-1.604002 -0.2844,-0.784937 -0.92145,-1.353732 -0.62567,-0.58017 -1.46749,-0.58017 -0.84181,0 -1.47886,0.58017 -0.62568,0.568795 -0.8987,1.353732 -0.27302,0.784937 -0.27302,1.604002 0,0.477787 0.10238,0.966952 0.10238,0.477786 0.31853,0.932823 0.21614,0.455037 0.51191,0.807686 0.30715,0.352654 0.75081,0.568796 0.44366,0.204767 0.96695,0.204767 0.63705,0 1.16034,-0.318526 0.52329,-0.3299 0.84182,-0.841814 0.31853,-0.523293 0.48916,-1.126216 0.18202,-0.602923 0.18202,-1.194468 z m -1.04658,1.103463 -0.19339,0 q 0,-0.284398 -0.17064,-0.47779 -0.15927,-0.204764 -0.44366,-0.204764 l -1.66088,0 q -0.22752,0 -0.39816,0.227517 -0.15926,0.227517 -0.15926,0.455037 l -0.18202,0 0,-2.195551 0.19339,0 q 0,0.227521 0.15927,0.466412 0.17063,0.238895 0.38678,0.238895 l 1.66088,0 q 0.26164,0 0.43228,-0.182014 0.18202,-0.193392 0.18202,-0.455037 l 0,-0.06826 0.19339,0 0,2.195551 z" />
    <path
       inkscape:connector-curvature="0"
       id="path4364"
       style="font-style:normal;font-variant:normal;font-weight:normal;font-stretch:normal;font-size:medium;line-height:125%;font-family:FreeSerif;-inkscape-font-specification:FreeSerif;letter-spacing:0px;word-spacing:0px;opacity:1;fill:#0046ff;fill-opacity:1;stroke:none;stroke-width:1px;stroke-linecap:butt;stroke-linejoin:miter;stroke-opacity:1"
       d="m 28.724627,89.015514 -2.90086,0 0,-0.216142 0.091,0 q 0.20477,0 0.3299,-0.01139 0.13652,-0.02274 0.25027,-0.125133 0.12514,-0.102384 0.12514,-0.295773 0,-0.159264 -0.21614,-0.716681 l -1.94528,-4.68687 -2.02491,4.925761 q -0.091,0.216142 -0.091,0.432285 0,0.477789 0.77356,0.477789 l 0,0.216142 -2.25243,0 0,-0.216142 q 0.19339,-0.01139 0.36403,-0.113762 0.17064,-0.113757 0.2844,-0.238891 0.12513,-0.136512 0.25027,-0.375407 0.13651,-0.238891 0.19339,-0.375402 0.0683,-0.147887 0.17064,-0.420909 0.11376,-0.273023 0.14788,-0.341275 l 2.36619,-5.585569 0.22752,0 2.8326,6.461511 q 0.26164,0.602923 0.43228,0.762184 0.22752,0.204767 0.59155,0.22752 l 0,0.216142 z" />
    <path
       inkscape:connector-curvature="0"
       id="path4370"
       style="font-style:normal;font-variant:normal;font-weight:normal;font-stretch:normal;font-size:medium;line-height:125%;font-family:FreeSerif;-inkscape-font-specification:FreeSerif;letter-spacing:0px;word-spacing:0px;opacity:1;fill:#000000;fill-opacity:1;stroke:none;stroke-width:1px;stroke-linecap:butt;stroke-linejoin:miter;stroke-opacity:1"
       d="m 53.592686,28.69218 -0.15926,0 q 0,-0.534667 -0.21614,-0.784937 -0.21615,-0.25027 -0.75081,-0.25027 l -3.56066,0 q -0.54604,0 -0.7053,0.227517 -0.15927,0.216142 -0.2389,0.80769 l -0.17064,0 0,-1.990783 5.80171,0 0,1.990783 z m -1.11484,3.003237 -0.15926,0 q 0,-0.750809 -0.67118,-0.750809 l -1.85427,0 q -0.30715,0 -0.48916,0.193389 -0.18202,0.193392 -0.18202,0.489165 l 0,0.06826 -0.15926,0 0,-2.457195 0.15926,0 q 0,0.318526 0.17064,0.511914 0.18202,0.193393 0.50054,0.193393 l 1.85427,0 q 0.26165,0 0.46641,-0.170639 0.21615,-0.182014 0.21615,-0.432284 0,-0.06826 -0.0114,-0.102384 l 0.15926,0 0,2.457195 z m 1.11484,2.536826 -5.80171,0 0,-1.990784 0.17064,0 q 0,1.035207 0.97833,1.035207 l 3.67441,0 q 0.38678,0 0.60293,-0.273023 0.21614,-0.284397 0.21614,-0.682553 l 0,-0.07963 0.15926,0 0,1.990784 z" />
    <path
       inkscape:connector-curvature="0"
       id="path4378"
       style="font-style:normal;font-variant:normal;font-weight:normal;font-stretch:normal;font-size:medium;line-height:125%;font-family:FreeSerif;-inkscape-font-specification:FreeSerif;letter-spacing:0px;word-spacing:0px;opacity:1;fill:#000000;fill-opacity:1;stroke:none;stroke-width:1px;stroke-linecap:butt;stroke-linejoin:miter;stroke-opacity:1"
       d="m 22.975402,52.303866 -6.234,0 3.7768,-3.7768 -3.75405,-3.742672 6.07473,0 0.13652,2.013537 -0.18202,0 q -0.0796,-0.72806 -0.64843,-1.194472 -0.56879,-0.466411 -1.3196,-0.466411 l -1.86565,0 q -0.36403,0 -0.36403,0.204767 0,0.0455 0.26165,0.3299 0.26165,0.273023 0.6598,0.682554 0.40953,0.398159 0.79631,0.784937 0.38678,0.375406 0.73944,0.72806 0.36403,0.341275 0.43228,0.40953 l -3.04874,3.037365 3.46965,0 q 0.39816,0 0.62567,-0.284397 0.2389,-0.284398 0.2389,-0.682554 l 0,-0.07963 0.20477,0 0,2.036286 z" />
    <path
       inkscape:connector-curvature="0"
       id="path4382"
       style="font-style:normal;font-variant:normal;font-weight:normal;font-stretch:normal;font-size:medium;line-height:125%;font-family:FreeSerif;-inkscape-font-specification:FreeSerif;letter-spacing:0px;word-spacing:0px;opacity:1;fill:#ff0000;fill-opacity:1;stroke:none;stroke-width:1px;stroke-linecap:butt;stroke-linejoin:miter;stroke-opacity:1"
       d="m 65.420389,16.97722 q 0,-0.955576 -0.10239,-1.63813 -0.091,-0.682553 -0.22751,-1.035206 -0.13652,-0.364029 -0.36403,-0.557421 -0.22752,-0.193389 -0.39816,-0.238891 -0.17064,-0.04551 -0.42091,-0.04551 -0.39815,0 -0.6598,0.07963 -0.25027,0.07963 -0.34128,0.170639 -0.0796,0.09101 -0.18201,0.170639 -0.10238,0.07963 -0.21614,0.07963 -0.11376,0 -0.11376,-0.193389 0,-0.386781 0.51191,-0.739435 0.51192,-0.364028 0.95558,-0.364028 0.96695,0 1.42198,0.648426 0.46642,0.648426 0.73944,2.161423 0.20477,-1.456116 0.73943,-2.127295 0.54605,-0.682555 1.56988,-0.682555 0.43228,0 0.86456,0.352655 0.43229,0.352652 0.43229,0.750808 0,0.216142 -0.10238,0.216142 -0.091,0 -0.18202,-0.07963 -0.0796,-0.07963 -0.17064,-0.182014 -0.091,-0.102384 -0.35265,-0.182018 -0.26165,-0.07963 -0.6598,-0.07963 -0.2389,0 -0.42091,0.05688 -0.18202,0.0455 -0.40953,0.25027 -0.22752,0.193389 -0.37541,0.546042 -0.14788,0.352654 -0.25027,1.023832 -0.10238,0.659801 -0.10238,1.569875 l 0,2.468569 q 0,0.443659 0.26165,0.591545 0.27302,0.136512 0.76218,0.136512 l 0,0.204767 -3.23075,0 0,-0.204767 q 0.3299,0 0.52329,-0.03413 0.19339,-0.0455 0.34127,-0.204767 0.15927,-0.170636 0.15927,-0.489161 l 0,-2.400314 z" />
    <path
       inkscape:connector-curvature="0"
       id="path4388"
       style="font-style:normal;font-variant:normal;font-weight:normal;font-stretch:normal;font-size:medium;line-height:125%;font-family:FreeSerif;-inkscape-font-specification:FreeSerif;letter-spacing:0px;word-spacing:0px;opacity:1;fill:#000000;fill-opacity:1;stroke:none;stroke-width:1px;stroke-linecap:butt;stroke-linejoin:miter;stroke-opacity:1"
       d="m 32.906587,63.033381 q -0.30714,0 -0.53466,0.125136 -0.21615,0.125133 -0.25027,0.125133 -0.17064,0 -0.17064,-0.147886 0,-0.295772 0.30715,-0.614298 0.30715,-0.318525 0.62567,-0.318525 0.55742,0 0.91007,0.352653 0.35266,0.341279 0.35266,0.978326 0,0.352654 -0.21614,1.05796 -0.20477,0.705307 -0.20477,1.114838 0,0.830439 0.42091,1.148965 0.43228,0.318525 1.53574,0.318525 l 0,-3.924682 q 0,-0.238895 -0.0796,-0.386781 -0.0682,-0.159264 -0.25027,-0.238895 -0.17064,-0.07963 -0.29577,-0.102384 -0.12514,-0.03413 -0.39816,-0.07963 l 0,-0.170639 3.20801,0 0,0.170639 q -1.02384,0.06826 -1.02384,0.796312 l 0,3.93606 q 1.10347,0 1.52438,-0.318525 0.43228,-0.318526 0.43228,-1.148965 0,-0.409531 -0.21614,-1.114838 -0.20477,-0.705306 -0.20477,-1.05796 0,-0.637047 0.35265,-0.978326 0.35266,-0.352653 0.91008,-0.352653 0.31852,0 0.62567,0.318525 0.30715,0.318526 0.30715,0.614298 0,0.147886 -0.17064,0.147886 -0.0341,0 -0.26164,-0.125133 -0.21614,-0.125136 -0.5233,-0.125136 -0.23889,0 -0.3754,0.02274 -0.12514,0.01139 -0.25027,0.113759 -0.11376,0.102383 -0.11376,0.295776 0,0.227516 0.15926,0.477786 0.17064,0.25027 0.36403,0.455037 0.19339,0.204763 0.35266,0.58017 0.17064,0.364028 0.17064,0.796312 0,0.716681 -0.72806,1.262723 -0.71669,0.534668 -1.96804,0.534668 -0.15926,0 -0.38678,-0.02274 l 0,1.285477 q 0,0.238891 0.38678,0.523289 0.39816,0.273023 0.75081,0.273023 l 0,0.170639 -3.43552,0 0,-0.170639 q 0.40954,0 0.77357,-0.204768 0.36402,-0.216142 0.36402,-0.591544 l 0,-1.285477 q -0.22751,0.02274 -0.38678,0.02274 -1.25135,0 -1.9794,-0.534668 -0.71668,-0.546042 -0.71668,-1.262723 0,-0.432284 0.15926,-0.796312 0.17064,-0.375407 0.36403,-0.58017 0.19339,-0.204767 0.35265,-0.455037 0.17064,-0.25027 0.17064,-0.477786 0,-0.284398 -0.19339,-0.352654 -0.18201,-0.07963 -0.54605,-0.07963 z" />
    <path
       inkscape:connector-curvature="0"
       id="path4390"
       style="font-style:normal;font-variant:normal;font-weight:normal;font-stretch:normal;font-size:medium;line-height:125%;font-family:FreeSerif;-inkscape-font-specification:FreeSerif;letter-spacing:0px;word-spacing:0px;opacity:1;fill:#000000;fill-opacity:1;stroke:none;stroke-width:1px;stroke-linecap:butt;stroke-linejoin:miter;stroke-opacity:1"
       d="m 44.207174,55.572488 0.27302,0 q 0.0228,0.409531 0.2389,0.614298 0.21614,0.204767 0.67118,0.204767 l 1.49024,0 -0.0114,-0.489165 q -0.37541,-0.07963 -0.77356,-0.295772 -0.38678,-0.216142 -0.75081,-0.568795 -0.35265,-0.364028 -0.58017,-0.921449 -0.22752,-0.568795 -0.22752,-1.228596 0,-1.376481 1.01245,-2.320683 1.01246,-0.944198 2.63921,-0.944198 1.56988,0 2.57096,0.887321 1.00107,0.875942 1.00107,2.332057 0,1.148965 -0.61429,1.956652 -0.60293,0.796315 -1.67226,1.103462 l -0.0569,0.489165 1.52437,0 q 0.85319,0 0.87594,-0.819065 l 0.27302,0 -0.0682,1.740514 -3.09424,0 0.14788,-1.672258 q 1.38786,-0.443659 1.38786,-2.650584 0,-0.841818 -0.22752,-1.456116 -0.22751,-0.614298 -0.60292,-0.921449 -0.36403,-0.307147 -0.72806,-0.443658 -0.36402,-0.136512 -0.73943,-0.136512 -1.04658,0 -1.69501,0.807691 -0.63705,0.807686 -0.63705,2.070414 0,2.206921 1.42199,2.730214 l 0.11376,1.672258 -3.09425,0 -0.0683,-1.740514 z" />
    <path
       inkscape:connector-curvature="0"
       id="path4394"
       style="font-style:normal;font-variant:normal;font-weight:normal;font-stretch:normal;font-size:medium;line-height:125%;font-family:FreeSerif;-inkscape-font-specification:FreeSerif;letter-spacing:0px;word-spacing:0px;opacity:1;fill:#000000;fill-opacity:1;stroke:none;stroke-width:1px;stroke-linecap:butt;stroke-linejoin:miter;stroke-opacity:1"
       d="m 103.07676,133.28132 -1.19449,0 q -0.25027,0 -0.25027,0.38678 l 0,2.24106 0.78494,0 q 0.75082,0 1.31961,0.15926 0.58017,0.14789 0.89869,0.3754 0.32991,0.22752 0.52329,0.55742 0.20477,0.31853 0.27303,0.6143 0.0683,0.2844 0.0683,0.60292 0,0.52329 -0.20477,0.93283 -0.20476,0.39815 -0.51191,0.62567 -0.29578,0.22752 -0.71669,0.37541 -0.4209,0.14788 -0.7963,0.19339 -0.36404,0.0455 -0.75082,0.0455 l -3.003237,0 0,-0.21615 q 0.637047,-0.0683 0.796307,-0.23889 0.15926,-0.17064 0.15926,-0.78493 l 0,-4.92577 q 0,-0.71668 -0.15926,-0.8987 -0.14789,-0.19339 -0.796307,-0.25026 l 0,-0.21615 5.574197,0 0.0683,1.93391 -0.27303,0 q -0.20476,-0.95558 -0.53466,-1.2286 -0.31853,-0.2844 -1.27409,-0.2844 z m -1.44476,6.30225 q 0,0.22752 0.0796,0.30715 0.0796,0.0796 0.30715,0.0796 2.24106,0 2.24106,-1.82014 0,-0.84182 -0.51192,-1.30823 -0.50053,-0.47779 -1.46749,-0.47779 -0.25027,0 -0.64842,0.0341 l 0,3.18525 z" />
    <path
       inkscape:connector-curvature="0"
       id="path4400"
       style="font-style:normal;font-variant:normal;font-weight:normal;font-stretch:normal;font-size:medium;line-height:125%;font-family:FreeSerif;-inkscape-font-specification:FreeSerif;letter-spacing:0px;word-spacing:0px;opacity:1;fill:#000000;fill-opacity:1;stroke:none;stroke-width:1px;stroke-linecap:butt;stroke-linejoin:miter;stroke-opacity:1"
       d="m 47.400237,126.60005 q 0.659801,-1.42199 0.659801,-5.05091 0,-0.61429 -0.170636,-0.78493 -0.170639,-0.18202 -0.830444,-0.23889 l 0,-0.21615 5.949598,0 0,0.21615 q -0.659805,0.0569 -0.83044,0.23889 -0.17064,0.17064 -0.17064,0.78493 l 0,4.83476 q 0,0.6143 0.17064,0.79631 0.170635,0.17064 0.83044,0.22752 l 0.091,2.36619 -0.284398,0 q -0.170635,-0.91007 -0.568795,-1.42199 -0.398156,-0.51191 -1.274098,-0.51191 l -2.821224,0 q -0.875946,0 -1.274102,0.50054 -0.386777,0.51191 -0.557416,1.43336 l -0.284398,0 0.09101,-2.36619 q 0.534668,0 0.807691,-0.18201 0.273022,-0.19339 0.466411,-0.62567 z m 0.432284,0.25026 q -0.102384,0.2389 -0.102384,0.36403 0,0.12514 0.07963,0.15926 0.07963,0.0341 0.22752,0.0341 l 1.808766,0 q 0.648425,0 0.819065,-0.23889 0.182014,-0.23889 0.182014,-0.97833 l 0,-5.02814 q 0,-0.2389 -0.07963,-0.32991 -0.06826,-0.091 -0.295772,-0.091 l -1.547121,0 q -0.22752,0 -0.307151,0.091 -0.06826,0.0796 -0.06826,0.31853 l 0,0.30715 q -0.02274,3.74267 -0.716681,5.39218 z" />
    <path
       inkscape:connector-curvature="0"
       id="path4404"
       style="font-style:normal;font-variant:normal;font-weight:normal;font-stretch:normal;font-size:medium;line-height:125%;font-family:FreeSerif;-inkscape-font-specification:FreeSerif;letter-spacing:0px;word-spacing:0px;opacity:1;fill:#000000;fill-opacity:1;stroke:none;stroke-width:1px;stroke-linecap:butt;stroke-linejoin:miter;stroke-opacity:1"
       d="m 88.118318,107.70326 q 0.238893,0 0.409532,0.17063 0.170639,0.17064 0.170639,0.39816 0,0.22752 -0.170639,0.39816 -0.170639,0.15926 -0.409532,0.15926 -0.227518,0 -0.386781,-0.15926 -0.159262,-0.17064 -0.159262,-0.40954 0,-0.21614 0.159262,-0.38678 0.170639,-0.17063 0.386781,-0.17063 z m -2.263804,0 q 0.238894,0 0.409532,0.17063 0.170639,0.17064 0.170639,0.39816 0,0.22752 -0.170639,0.39816 -0.170638,0.15926 -0.409532,0.15926 -0.227518,0 -0.38678,-0.15926 -0.159263,-0.17064 -0.159263,-0.40954 0,-0.21614 0.159263,-0.38678 0.170638,-0.17063 0.38678,-0.17063 z m -0.01137,8.75944 q 0,0.3299 0.182014,0.40953 0.19339,0.0796 1.012455,0.0796 l 0.307149,0 q 1.217221,0 1.740512,-0.2844 0.523291,-0.29577 0.9442,-1.21722 l 0.318525,0 -0.511915,1.92253 -6.142985,0 0,-0.21615 q 0.625674,-0.0455 0.807688,-0.22751 0.182015,-0.1934 0.182015,-0.79632 l 0,-5.0509 q 0,-0.60292 -0.182015,-0.78493 -0.182014,-0.19339 -0.807688,-0.2389 l 0,-0.21614 6.040601,0 0.03413,1.62675 -0.284397,0 q -0.147887,-0.76218 -0.455036,-0.97832 -0.30715,-0.21614 -1.274101,-0.21614 l -1.535746,0 q -0.227518,0 -0.307149,0.0796 -0.06826,0.0683 -0.06826,0.30715 l 0,2.52544 1.751887,0 q 0.728058,0 0.932824,-0.21614 0.216142,-0.22752 0.318525,-0.86457 l 0.261646,0 0,2.63921 -0.261646,0 q -0.113759,-0.7053 -0.329901,-0.89869 -0.216142,-0.1934 -0.921448,-0.1934 l -1.751887,0 0,2.80985 z" />
    <path
       inkscape:connector-curvature="0"
       id="path4406"
       style="font-style:normal;font-variant:normal;font-weight:normal;font-stretch:normal;font-size:medium;line-height:125%;font-family:FreeSerif;-inkscape-font-specification:FreeSerif;letter-spacing:0px;word-spacing:0px;opacity:1;fill:#000000;fill-opacity:1;stroke:none;stroke-width:1px;stroke-linecap:butt;stroke-linejoin:miter;stroke-opacity:1"
       d="m 95.485828,126.02362 q -0.398156,0 -0.568794,0.15926 -0.159263,0.14789 -0.44366,0.64842 -0.06826,0.12514 -0.102383,0.18202 l -1.512995,2.68471 -1.865647,0 0,-0.21614 q 0.238894,0 0.329901,-0.0114 0.102383,-0.0114 0.284397,-0.0683 0.182015,-0.0569 0.30715,-0.18202 0.125135,-0.12513 0.295773,-0.36402 0.182014,-0.2389 0.375404,-0.60293 l 0.898697,-1.62675 q 0.420908,-0.76219 1.183093,-0.88732 l 0,-0.0341 q -0.295773,-0.10238 -0.591547,-0.59155 -0.284397,-0.48916 -0.455036,-1.21722 -0.204766,-0.91007 -0.58017,-0.91007 -0.159263,0 -0.375405,0.17064 -0.216142,0.17064 -0.455036,0.17064 -0.204766,0 -0.364029,-0.17064 -0.159262,-0.18202 -0.159262,-0.44366 0,-0.29577 0.204766,-0.45504 0.216142,-0.15926 0.557419,-0.15926 0.489163,0 0.932823,0.42091 0.44366,0.4209 0.659802,1.26272 0.227518,0.86457 0.546044,1.31961 0.318525,0.45503 0.898695,0.45503 l 0.147887,0 0,-2.15004 q 0,-0.62568 -0.182014,-0.79632 -0.170639,-0.18201 -0.864568,-0.22751 l 0,-0.21614 3.253506,0 0,0.21614 q -0.693929,0.0455 -0.875944,0.22751 -0.170638,0.17064 -0.170638,0.79632 l 0,2.15004 0.13651,0 q 0.580171,0 0.898696,-0.45503 0.318525,-0.45504 0.546043,-1.31961 0.216142,-0.84182 0.659803,-1.26272 0.443663,-0.42091 0.932823,-0.42091 0.341278,0 0.546038,0.15926 0.21615,0.15927 0.21615,0.45504 0,0.26164 -0.15927,0.44366 -0.15926,0.17064 -0.36403,0.17064 -0.238888,0 -0.455028,-0.17064 -0.0228,-0.0114 -0.0683,-0.0455 -0.0341,-0.0341 -0.0569,-0.0455 -0.0114,-0.0114 -0.0455,-0.0341 -0.0341,-0.0227 -0.0569,-0.0227 -0.0228,-0.0114 -0.0683,-0.0114 -0.0455,-0.0114 -0.091,-0.0114 -0.364031,0 -0.568797,0.91007 -0.170639,0.72805 -0.466412,1.21722 -0.284397,0.48916 -0.580171,0.59155 0.01138,0.0341 0,0.0341 0.773561,0.12513 1.183094,0.88731 l 0.898696,1.62676 q 0.193388,0.36403 0.364028,0.60292 0.18201,0.23889 0.30715,0.36403 0.12513,0.12513 0.30716,0.18201 0.18201,0.0569 0.27302,0.0683 0.10238,0.0114 0.34127,0.0114 l 0,0.21615 -1.865648,0 -1.512996,-2.68472 q -0.386781,-0.68255 -0.511916,-0.80768 -0.204766,-0.18202 -0.602923,-0.18202 l -0.13651,0 0,2.43444 q 0,0.62568 0.182014,0.80769 0.182015,0.17064 0.841816,0.21614 l 0,0.21615 -3.208003,0 0,-0.21615 q 0.659803,-0.0455 0.841817,-0.21614 0.182014,-0.18201 0.182014,-0.80769 l 0,-2.43444 -0.147887,0 z" />
    <path
       inkscape:connector-curvature="0"
       id="path4408"
       style="font-style:normal;font-variant:normal;font-weight:normal;font-stretch:normal;font-size:medium;line-height:125%;font-family:FreeSerif;-inkscape-font-specification:FreeSerif;letter-spacing:0px;word-spacing:0px;opacity:1;fill:#000000;fill-opacity:1;stroke:none;stroke-width:1px;stroke-linecap:butt;stroke-linejoin:miter;stroke-opacity:1"
       d="m 60.599757,122.18386 q 0.819065,0 1.330981,-0.45504 0.511915,-0.46641 0.511915,-1.19447 0,-0.80769 -0.591547,-1.26272 -0.580171,-0.46641 -1.751888,-0.46641 l 0,-0.42091 q 0.398156,0 0.739433,-0.0796 0.352653,-0.0796 0.682554,-0.26165 0.341277,-0.18202 0.534667,-0.53467 0.204767,-0.36403 0.204767,-0.86457 0,-0.63705 -0.466413,-1.00108 -0.466411,-0.36402 -1.08071,-0.36402 -1.922526,0 -2.366186,1.75188 l -0.261646,0 0.09101,-2.04766 0.227518,0 q 0.125135,0.19339 0.455036,0.19339 0.03413,0 0.728057,-0.17064 0.69393,-0.18201 1.160342,-0.18201 1.103462,0 1.911151,0.46641 0.819064,0.46641 0.819064,1.35373 0,0.42091 -0.19339,0.77357 -0.19339,0.35265 -0.500539,0.56879 -0.295774,0.20476 -0.557419,0.3299 -0.25027,0.11376 -0.489164,0.17064 l 0,0.0341 q 0.352653,0.0114 0.796313,0.19339 0.455036,0.17064 0.864568,0.6143 0.409532,0.44366 0.409532,1.04658 0,1.01246 -0.773561,1.66088 -0.77356,0.64843 -2.297931,0.64843 -1.057958,0 -1.842895,-0.47779 -0.773561,-0.48916 -1.114838,-1.08071 l 0.204766,-0.17064 q 0.455036,0.5688 1.183093,0.8987 0.739434,0.3299 1.433363,0.3299 z" />
    <path
       inkscape:connector-curvature="0"
       id="path4410"
       style="font-style:normal;font-variant:normal;font-weight:normal;font-stretch:normal;font-size:medium;line-height:125%;font-family:FreeSerif;-inkscape-font-specification:FreeSerif;letter-spacing:0px;word-spacing:0px;opacity:1;fill:#000000;fill-opacity:1;stroke:none;stroke-width:1px;stroke-linecap:butt;stroke-linejoin:miter;stroke-opacity:1"
       d="m 71.066098,128.10403 0,0.21614 -3.162495,0 0,-0.21614 q 0.659802,-0.0455 0.830441,-0.2389 0.170638,-0.19339 0.170638,-0.91007 l 0,-4.92577 q 0,-0.61429 -0.170638,-0.78493 -0.170639,-0.18202 -0.830441,-0.23889 l 0,-0.21615 3.162495,0 0,0.21615 q -0.659797,0.0569 -0.830436,0.23889 -0.170638,0.17064 -0.170638,0.78493 l 0,4.59587 3.446894,-4.86888 q 0,-0.39816 -0.17064,-0.53467 -0.17064,-0.14789 -0.83044,-0.21614 l 0,-0.21615 3.1625,0 0,0.21615 q -0.6598,0.0569 -0.83044,0.23889 -0.17064,0.17064 -0.17064,0.78493 l 0,5.05091 q 0,0.60292 0.18201,0.78493 0.18202,0.18202 0.81907,0.2389 l 0,0.21614 -3.1625,0 0,-0.21614 q 0.6598,-0.0455 0.83044,-0.2389 0.17064,-0.19339 0.17064,-0.91007 l 0,-4.47073 -3.446894,4.86889 q 0,0.39815 0.227518,0.56879 0.227518,0.15926 0.773556,0.18202 z" />
    <path
       inkscape:connector-curvature="0"
       id="path4412"
       style="font-style:normal;font-variant:normal;font-weight:normal;font-stretch:normal;font-size:medium;line-height:125%;font-family:FreeSerif;-inkscape-font-specification:FreeSerif;letter-spacing:0px;word-spacing:0px;opacity:1;fill:#000000;fill-opacity:1;stroke:none;stroke-width:1px;stroke-linecap:butt;stroke-linejoin:miter;stroke-opacity:1"
       d="m 83.102754,119.83375 q -0.50054,0.30715 -1.16034,0.30715 -0.6598,0 -1.17172,-0.30715 -0.50054,-0.30716 -0.50054,-0.83044 0,-0.25027 0.13651,-0.38679 0.14789,-0.13651 0.3299,-0.13651 0.2389,0 0.34128,0.13651 0.10238,0.12514 0.10238,0.2389 0,0.15926 -0.12513,0.25027 -0.11376,0.0796 -0.11376,0.18201 0,0.21615 0.14789,0.29578 0.15926,0.0683 0.44366,0.0683 0.0683,0 0.20476,0 0.13651,-0.0114 0.20477,-0.0114 0.0682,0 0.20476,0.0114 0.13651,0 0.20477,0 0.2844,0 0.43228,-0.0683 0.15927,-0.0796 0.15927,-0.29578 0,-0.091 -0.12514,-0.18201 -0.11376,-0.091 -0.11376,-0.25027 0,-0.11376 0.10239,-0.2389 0.10238,-0.13651 0.34127,-0.13651 0.18202,0 0.31853,0.13651 0.14788,0.13652 0.14788,0.38679 0,0.52328 -0.51191,0.83044 z m -1.9339,8.27027 0,0.21615 -3.1625,0 0,-0.21615 q 0.6598,-0.0455 0.83044,-0.23889 0.17064,-0.19339 0.17064,-0.91007 l 0,-4.92577 q 0,-0.6143 -0.17064,-0.78493 -0.17064,-0.18202 -0.83044,-0.2389 l 0,-0.21614 3.1625,0 0,0.21614 q -0.65981,0.0569 -0.83044,0.2389 -0.17064,0.17063 -0.17064,0.78493 l 0,4.59587 3.44689,-4.86889 q 0,-0.39815 -0.17063,-0.53466 -0.17064,-0.14789 -0.83044,-0.21615 l 0,-0.21614 3.1625,0 0,0.21614 q -0.65981,0.0569 -0.83045,0.2389 -0.17063,0.17063 -0.17063,0.78493 l 0,5.0509 q 0,0.60292 0.18201,0.78494 0.18201,0.18201 0.81907,0.23889 l 0,0.21615 -3.1625,0 0,-0.21615 q 0.6598,-0.0455 0.83044,-0.23889 0.17063,-0.19339 0.17063,-0.91007 l 0,-4.47073 -3.44689,4.86888 q 0,0.39816 0.22752,0.5688 0.22751,0.15926 0.77356,0.18201 z" />
    <path
       inkscape:connector-curvature="0"
       id="path4414"
       style="font-style:normal;font-variant:normal;font-weight:normal;font-stretch:normal;font-size:medium;line-height:125%;font-family:FreeSerif;-inkscape-font-specification:FreeSerif;letter-spacing:0px;word-spacing:0px;opacity:1;fill:#00b400;fill-opacity:1;stroke:none;stroke-width:1px;stroke-linecap:butt;stroke-linejoin:miter;stroke-opacity:1"
       d="m 101.16115,112.22127 q 0,0.26164 -0.15926,0.44366 -0.15926,0.17064 -0.36403,0.17064 -0.25027,0 -0.45503,-0.17064 -0.0114,-0.0114 -0.0569,-0.0455 -0.0341,-0.0341 -0.0455,-0.0341 -0.0114,-0.0114 -0.0455,-0.0341 -0.0341,-0.0227 -0.0569,-0.0227 -0.0114,-0.0114 -0.0455,-0.0227 -0.0228,-0.0114 -0.0569,-0.0114 -0.0341,0 -0.0683,0 -0.3754,0 -0.580168,0.91007 -0.13651,0.65981 -0.50054,1.19447 -0.36403,0.53466 -0.6143,0.6143 l 0,0.0455 q 0.63705,0.10238 1.11484,0.85319 l 1.001078,1.64951 q 0.51192,0.84181 0.78494,1.03521 0.28439,0.19339 0.73943,0.19339 0.0683,0 0.10238,0 l 0,0.21613 -1.86564,0 -1.558498,-2.52545 q -0.47779,-0.75081 -0.6598,-0.91007 -0.26165,-0.23889 -0.63705,-0.23889 l -0.36403,0 0,2.43444 q 0,0.62567 0.17064,0.80769 0.18201,0.17064 0.85319,0.21614 l 0,0.21614 -3.208,0 0,-0.21614 q 0.67117,-0.0455 0.84181,-0.23889 0.18202,-0.20477 0.18202,-0.91008 l 0,-4.92576 q 0,-0.60292 -0.18202,-0.78494 -0.18201,-0.19339 -0.84181,-0.23889 l 0,-0.21614 3.23075,0 0,0.21614 q -0.69393,0.0455 -0.87594,0.22752 -0.17064,0.17064 -0.17064,0.79631 l 0,2.15004 0.36403,0 q 1.21722,0 1.67225,-1.77463 0.21615,-0.84182 0.659808,-1.26273 0.44366,-0.42091 0.93282,-0.42091 0.34128,0 0.54604,0.15926 0.21614,0.15927 0.21614,0.45504 z" />
    <path
       inkscape:connector-curvature="0"
       id="path4416"
       style="font-style:normal;font-variant:normal;font-weight:normal;font-stretch:normal;font-size:medium;line-height:125%;font-family:FreeSerif;-inkscape-font-specification:FreeSerif;letter-spacing:0px;word-spacing:0px;opacity:1;fill:#0046ff;fill-opacity:1;stroke:none;stroke-width:1px;stroke-linecap:butt;stroke-linejoin:miter;stroke-opacity:1"
       d="m 37.942625,118.43682 q -0.43228,0 -0.72806,-0.22752 -0.29577,-0.23889 -0.29577,-0.58017 0,-0.20476 0.13651,-0.34128 0.14789,-0.13651 0.3299,-0.13651 0.34128,0 0.50054,0.35266 0.13651,0.3299 0.37541,0.3299 0.58017,0 0.87594,-0.91007 0.20477,-0.63705 0.2844,-1.58125 0.0796,-0.9442 0.0796,-3.34452 0,-0.6143 -0.17064,-0.78494 -0.17064,-0.18201 -0.83044,-0.23889 l 0,-0.21614 5.88134,0 0,0.21614 q -0.6598,0.0569 -0.83044,0.23889 -0.17064,0.17064 -0.17064,0.78494 l 0,5.0509 q 0,0.60292 0.18201,0.78494 0.18202,0.18201 0.81907,0.23889 l 0,0.21614 -3.1625,0 0,-0.21614 q 0.6598,-0.0455 0.83044,-0.23889 0.17064,-0.19339 0.17064,-0.91007 l 0,-5.31255 q 0,-0.25027 -0.0796,-0.3299 -0.0683,-0.091 -0.29578,-0.091 l -1.49024,0 q -0.21614,0 -0.29577,0.091 -0.0796,0.091 -0.0796,0.3299 l 0,1.42199 q 0,1.34236 -0.10239,2.30931 -0.091,0.95557 -0.31852,1.67226 -0.22752,0.71668 -0.63705,1.06933 -0.39816,0.35265 -0.97833,0.35265 z" />
    <path
       inkscape:connector-curvature="0"
       id="path4432"
       style="font-style:normal;font-variant:normal;font-weight:normal;font-stretch:normal;font-size:medium;line-height:125%;font-family:FreeSerif;-inkscape-font-specification:FreeSerif;letter-spacing:0px;word-spacing:0px;opacity:1;fill:#ff0000;fill-opacity:1;stroke:none;stroke-width:1px;stroke-linecap:butt;stroke-linejoin:miter;stroke-opacity:1"
       d="m 78.064712,148.17887 -2.5027,-5.0509 q -0.0114,-0.0114 -0.11376,-0.18201 -0.091,-0.18202 -0.11376,-0.21615 -0.0227,-0.0341 -0.12513,-0.17064 -0.091,-0.14788 -0.15927,-0.19339 -0.0683,-0.0455 -0.18201,-0.11375 -0.11376,-0.0796 -0.25027,-0.10239 -0.12513,-0.0341 -0.2844,-0.0341 l 0,-0.21614 3.18525,0 0,0.21614 -0.27302,0.0114 q -0.52329,0.0114 -0.52329,0.27303 0,0.40953 0.45504,1.34235 l 1.49024,3.06012 1.61538,-3.53791 q 0.18201,-0.39815 0.18201,-0.73943 0,-0.40953 -0.76218,-0.40953 l 0,-0.21614 2.46857,0 0,0.21614 q -0.50054,0.0341 -0.87595,0.50054 -0.3754,0.46641 -0.78493,1.33098 l -1.78602,3.89056 q -0.43228,0.93282 -0.79631,1.34236 -0.36403,0.39815 -1.02383,0.39815 -0.53467,0 -0.87595,-0.21615 -0.3299,-0.22751 -0.3299,-0.58017 0,-0.48916 0.48916,-0.48916 0.44367,0 0.44367,0.50054 0,0.36403 0.46641,0.36403 0.29577,0 0.50054,-0.22751 0.21614,-0.23889 0.46641,-0.75082 z" />
    <path
       inkscape:connector-curvature="0"
       id="path4438"
       style="font-style:normal;font-variant:normal;font-weight:normal;font-stretch:normal;font-size:medium;line-height:125%;font-family:FreeSerif;-inkscape-font-specification:FreeSerif;letter-spacing:0px;word-spacing:0px;opacity:1;fill:#000000;fill-opacity:1;stroke:none;stroke-width:1px;stroke-linecap:butt;stroke-linejoin:miter;stroke-opacity:1"
       d="m 87.929254,132.61137 q 0,-0.60292 -0.18202,-0.78494 -0.18201,-0.18201 -0.81906,-0.23889 l 0,-0.21614 3.17388,0 0,0.21614 q -0.65981,0.0455 -0.83044,0.23889 -0.17064,0.19339 -0.17064,0.91007 l 0,4.70963 q 0,0.61429 0.17064,0.79631 0.18201,0.17064 0.84181,0.22751 l 0.091,2.36619 -0.29578,0 q -0.0796,-0.44366 -0.18201,-0.75081 -0.10238,-0.29577 -0.29577,-0.59154 -0.19339,-0.29578 -0.5233,-0.44366 -0.31852,-0.14789 -0.78493,-0.14789 l -5.79033,0 0,-0.21614 q 0.6598,-0.0569 0.83044,-0.22752 0.17064,-0.18201 0.17064,-0.79631 l 0,-5.0509 q 0,-0.60292 -0.18202,-0.78494 -0.18201,-0.18201 -0.81906,-0.23889 l 0,-0.21614 3.1625,0 0,0.21614 q -0.65981,0.0455 -0.83044,0.23889 -0.17064,0.19339 -0.17064,0.91007 l 0,5.31255 q 0,0.23889 0.0682,0.3299 0.0683,0.091 0.30715,0.091 l 2.69609,0 q 0.21614,0 0.2844,-0.091 0.0796,-0.091 0.0796,-0.3299 l 0,-5.43768 z" />
    <path
       inkscape:connector-curvature="0"
       id="path4440"
       style="font-style:normal;font-variant:normal;font-weight:normal;font-stretch:normal;font-size:medium;line-height:125%;font-family:FreeSerif;-inkscape-font-specification:FreeSerif;letter-spacing:0px;word-spacing:0px;opacity:1;fill:#000000;fill-opacity:1;stroke:none;stroke-width:1px;stroke-linecap:butt;stroke-linejoin:miter;stroke-opacity:1"
       d="m 66.635307,144.43054 q 0,1.67226 1.18309,1.67226 0.93283,0 1.797397,-0.69393 l 0,-2.19555 q 0,-0.6143 -0.170637,-0.78493 -0.17064,-0.18202 -0.83044,-0.2389 l 0,-0.21614 3.162497,0 0,0.21614 q -0.6598,0.0569 -0.83044,0.2389 -0.17064,0.17063 -0.17064,0.78493 l 0,5.0509 q 0,0.60292 0.18201,0.78494 0.18202,0.18201 0.81907,0.23889 l 0,0.21615 -3.162497,0 0,-0.21615 q 0.6598,-0.0455 0.83044,-0.23889 0.170637,-0.19339 0.170637,-0.91007 l 0,-2.22968 q -0.819067,0.69393 -1.763267,0.69393 -1.16034,0 -1.77464,-0.58017 -0.60292,-0.59155 -0.60292,-1.604 l 0,-1.20585 q 0,-0.6143 -0.17064,-0.78493 -0.17064,-0.18202 -0.83044,-0.2389 l 0,-0.21614 3.1625,0 0,0.21614 q -0.6598,0.0569 -0.83044,0.2389 -0.17064,0.17063 -0.17064,0.78493 l 0,1.21722 z" />
    <path
       inkscape:connector-curvature="0"
       id="path4442"
       style="font-style:normal;font-variant:normal;font-weight:normal;font-stretch:normal;font-size:medium;line-height:125%;font-family:FreeSerif;-inkscape-font-specification:FreeSerif;letter-spacing:0px;word-spacing:0px;opacity:1;fill:#000000;fill-opacity:1;stroke:none;stroke-width:1px;stroke-linecap:butt;stroke-linejoin:miter;stroke-opacity:1"
       d="m 63.358408,132.61137 q 0,-0.60292 -0.18201,-0.78494 -0.18202,-0.18201 -0.81907,-0.23889 l 0,-0.21614 3.1625,0 0,0.21614 q -0.6598,0.0455 -0.83044,0.23889 -0.17064,0.1934 -0.17064,0.91008 l 0,4.92576 q 0,0.6143 0.17064,0.79631 0.17064,0.17064 0.83044,0.22752 l 0,0.21614 -10.73885,0 0,-0.21614 q 0.65981,-0.0569 0.83045,-0.22752 0.17063,-0.18201 0.17063,-0.79631 l 0,-5.0509 q 0,-0.60292 -0.18201,-0.78494 -0.18202,-0.18201 -0.81907,-0.23889 l 0,-0.21614 3.1625,0 0,0.21614 q -0.6598,0.0455 -0.83043,0.23889 -0.17064,0.1934 -0.17064,0.91008 l 0,5.31254 q 0,0.25027 0.0683,0.34128 0.0683,0.0796 0.30715,0.0796 l 1.8884,0 q 0.22751,0 0.29577,-0.0796 0.0683,-0.091 0.0683,-0.34128 l 0,-5.43768 q 0,-0.60292 -0.18202,-0.78494 -0.18201,-0.18201 -0.81906,-0.23889 l 0,-0.21614 3.1625,0 0,0.21614 q -0.68255,0.0455 -0.84182,0.20477 -0.15926,0.14789 -0.15926,0.85319 l 0,5.40355 q 0,0.2389 0.0683,0.3299 0.0796,0.091 0.30714,0.091 l 1.8884,0 q 0.21614,0 0.2844,-0.091 0.0796,-0.091 0.0796,-0.3299 l 0,-5.43768 z" />
    <path
       inkscape:connector-curvature="0"
       id="path4444"
       style="font-style:normal;font-variant:normal;font-weight:normal;font-stretch:normal;font-size:medium;line-height:125%;font-family:FreeSerif;-inkscape-font-specification:FreeSerif;letter-spacing:0px;word-spacing:0px;opacity:1;fill:#000000;fill-opacity:1;stroke:none;stroke-width:1px;stroke-linecap:butt;stroke-linejoin:miter;stroke-opacity:1"
       d="m 77.088572,132.61137 q 0,-0.60292 -0.18201,-0.78494 -0.18202,-0.18201 -0.81907,-0.23889 l 0,-0.21614 3.1625,0 0,0.21614 q -0.6598,0.0455 -0.83044,0.23889 -0.17064,0.19339 -0.17064,0.91007 l 0,4.70963 q 0,0.61429 0.17064,0.79631 0.17064,0.17064 0.83044,0.22751 l 0.091,2.36619 -0.2844,0 q -0.0796,-0.44366 -0.18201,-0.75081 -0.10238,-0.29577 -0.29578,-0.59154 -0.19339,-0.29578 -0.52329,-0.44366 -0.31852,-0.14789 -0.78493,-0.14789 l -8.75944,0 0,-0.21614 q 0.6598,-0.0569 0.83044,-0.22752 0.17063,-0.18201 0.17063,-0.79631 l 0,-5.0509 q 0,-0.60292 -0.18201,-0.78494 -0.18201,-0.18201 -0.81906,-0.23889 l 0,-0.21614 3.16249,0 0,0.21614 q -0.6598,0.0455 -0.83044,0.23889 -0.17064,0.19339 -0.17064,0.91007 l 0,5.31255 q 0,0.25027 0.0683,0.34127 0.0796,0.0796 0.30715,0.0796 l 1.8884,0 q 0.22752,0 0.29577,-0.0796 0.0683,-0.091 0.0683,-0.34127 l 0,-5.43768 q 0,-0.60292 -0.18202,-0.78494 -0.18201,-0.18201 -0.81906,-0.23889 l 0,-0.21614 3.1625,0 0,0.21614 q -0.68256,0.0455 -0.84182,0.20476 -0.15926,0.14789 -0.15926,0.85319 l 0,5.40356 q 0,0.23889 0.0796,0.3299 0.0796,0.091 0.29578,0.091 l 1.88839,0 q 0.22752,0 0.29578,-0.0796 0.0682,-0.091 0.0682,-0.34128 l 0,-5.43768 z" />
    <path
       inkscape:connector-curvature="0"
       id="path4446"
       style="font-style:normal;font-variant:normal;font-weight:normal;font-stretch:normal;font-size:medium;line-height:125%;font-family:FreeSerif;-inkscape-font-specification:FreeSerif;letter-spacing:0px;word-spacing:0px;opacity:1;fill:#000000;fill-opacity:1;stroke:none;stroke-width:1px;stroke-linecap:butt;stroke-linejoin:miter;stroke-opacity:1"
       d="m 86.483138,142.40563 q -0.9442,0 -1.2741,0.2844 -0.3299,0.27302 -0.53467,1.21722 l -0.27302,0 0.0683,-1.9339 4.8575,0 0,0.21614 q -0.67117,0.0227 -0.87594,0.21614 -0.19339,0.18201 -0.19339,0.80769 l 0,1.84289 q 0.44366,-0.0341 0.78494,-0.0341 0.75081,0 1.3196,0.15926 0.58017,0.14789 0.8987,0.37541 0.3299,0.22752 0.52329,0.55742 0.20477,0.31852 0.27302,0.6143 0.0683,0.2844 0.0683,0.60292 0,0.52329 -0.20477,0.93283 -0.20477,0.39815 -0.51191,0.62567 -0.29578,0.22752 -0.71669,0.3754 -0.4209,0.14789 -0.79631,0.19339 -0.36403,0.0455 -0.75081,0.0455 l -3.00324,0 0,-0.21614 q 0.63705,-0.0683 0.79632,-0.23889 0.15926,-0.17064 0.15926,-0.78494 l 0,-5.43768 q 0,-0.23889 -0.0796,-0.3299 -0.0683,-0.091 -0.29577,-0.091 l -0.2389,0 z m 1.77464,6.29087 q 0,0.22752 0.0796,0.30715 0.0796,0.0796 0.30715,0.0796 2.24105,0 2.24105,-1.82014 0,-0.84182 -0.51191,-1.30823 -0.50054,-0.47779 -1.46749,-0.47779 -0.25027,0 -0.64843,0.0341 l 0,3.18525 z" />
    <path
       inkscape:connector-curvature="0"
       id="path4448"
       style="font-style:normal;font-variant:normal;font-weight:normal;font-stretch:normal;font-size:medium;line-height:125%;font-family:FreeSerif;-inkscape-font-specification:FreeSerif;letter-spacing:0px;word-spacing:0px;opacity:1;fill:#000000;fill-opacity:1;stroke:none;stroke-width:1px;stroke-linecap:butt;stroke-linejoin:miter;stroke-opacity:1"
       d="m 115.48552,131.70099 0,-5.0509 q 0,-0.62567 -0.19339,-0.79631 -0.18202,-0.18202 -0.91007,-0.22752 l 0,-0.21614 3.37864,0 0,0.21614 q -0.71668,0.0341 -0.92145,0.21614 -0.19339,0.18202 -0.19339,0.80769 l 0,5.0509 q 0,0.62567 0.20477,0.81906 0.20476,0.18202 0.91007,0.20477 l 0,0.21614 -3.37864,0 0,-0.21614 q 0.71668,-0.0228 0.91007,-0.20477 0.19339,-0.18201 0.19339,-0.81906 z m -4.95989,-3.24213 0.78493,0 q 0.75081,0 1.31961,0.15926 0.58017,0.14789 0.89869,0.37541 0.32991,0.22751 0.5233,0.55741 0.20476,0.31853 0.27302,0.6143 0.0683,0.2844 0.0683,0.60292 0,0.5233 -0.20476,0.93283 -0.20477,0.39816 -0.51192,0.62567 -0.29577,0.22752 -0.71668,0.37541 -0.42091,0.14788 -0.79631,0.19339 -0.36403,0.0455 -0.75081,0.0455 l -3.00324,0 0,-0.21614 q 0.63705,-0.0683 0.79631,-0.2389 0.15927,-0.17064 0.15927,-0.78493 l 0,-4.92577 q 0,-0.71668 -0.15927,-0.89869 -0.14788,-0.1934 -0.79631,-0.25027 l 0,-0.21615 3.18525,0 0,0.21615 q -0.67118,0.0227 -0.87594,0.21614 -0.19339,0.18201 -0.19339,0.80768 l 0,1.80877 z m 0,3.67441 q 0,0.22752 0.0796,0.30715 0.0796,0.0796 0.30715,0.0796 2.24105,0 2.24105,-1.82014 0,-0.84182 -0.51192,-1.30823 -0.50054,-0.47779 -1.46749,-0.47779 -0.25027,0 -0.64842,0.0341 l 0,3.18525 z" />
    <path
       inkscape:connector-curvature="0"
       id="path4450"
       style="font-style:normal;font-variant:normal;font-weight:normal;font-stretch:normal;font-size:medium;line-height:125%;font-family:FreeSerif;-inkscape-font-specification:FreeSerif;letter-spacing:0px;word-spacing:0px;opacity:1;fill:#000000;fill-opacity:1;stroke:none;stroke-width:1px;stroke-linecap:butt;stroke-linejoin:miter;stroke-opacity:1"
       d="m 95.701815,145.0221 0.78494,0 q 0.75081,0 1.31961,0.15926 0.58017,0.14788 0.898691,0.3754 0.3299,0.22751 0.52329,0.55741 0.204768,0.31854 0.273018,0.6143 0.0683,0.2844 0.0683,0.60292 0,0.52331 -0.20477,0.93283 -0.204758,0.39816 -0.511908,0.62568 -0.29577,0.22752 -0.716681,0.3754 -0.42091,0.14789 -0.79632,0.19339 -0.36403,0.0455 -0.7508,0.0455 l -3.00324,0 0,-0.21614 q 0.63705,-0.0683 0.79631,-0.2389 0.15926,-0.17063 0.15926,-0.78493 l 0,-4.92577 q 0,-0.71668 -0.15926,-0.89868 -0.14789,-0.1934 -0.79631,-0.25027 l 0,-0.21614 3.18525,0 0,0.21614 q -0.67118,0.0227 -0.87595,0.21613 -0.19339,0.18201 -0.19339,0.8077 l 0,1.80876 z m 0,3.67441 q 0,0.22752 0.0796,0.30715 0.0796,0.0796 0.30716,0.0796 2.24104,0 2.24104,-1.82014 0,-0.84183 -0.51191,-1.30824 -0.50054,-0.47778 -1.46749,-0.47778 -0.25027,0 -0.64843,0.0341 l 0,3.18525 z" />
    <path
       inkscape:connector-curvature="0"
       id="path4452"
       style="font-style:normal;font-variant:normal;font-weight:normal;font-stretch:normal;font-size:medium;line-height:125%;font-family:FreeSerif;-inkscape-font-specification:FreeSerif;letter-spacing:0px;word-spacing:0px;opacity:1;fill:#000000;fill-opacity:1;stroke:none;stroke-width:1px;stroke-linecap:butt;stroke-linejoin:miter;stroke-opacity:1"
       d="m 76.821727,109.97843 q -0.50054,0 -0.91007,0.15926 -0.40953,0.15926 -0.6598,0.36403 -0.2389,0.20476 -0.43229,0.53467 -0.19339,0.3299 -0.27302,0.54604 -0.0796,0.21614 -0.17064,0.51191 l -0.26164,0 0.10238,-2.57095 0.23889,0 q 0.10238,0.37541 0.47779,0.37541 0.19339,0 0.44366,-0.10239 0.84182,-0.27302 1.66088,-0.27302 0.34128,0 0.76219,0.091 0.42091,0.0796 0.97832,0.34127 0.55742,0.26165 1.00108,0.68256 0.44366,0.40953 0.75081,1.16034 0.31853,0.75081 0.31853,1.71776 0,0.92145 -0.29578,1.63813 -0.28439,0.71668 -0.7053,1.12621 -0.42091,0.39816 -0.96695,0.65981 -0.54605,0.26164 -0.97833,0.34127 -0.43228,0.091 -0.83044,0.091 -0.96695,0 -1.77464,-0.3754 -0.80769,-0.37541 -1.33098,-1.06934 l 0.20476,-0.20476 q 1.19448,1.14896 2.53683,1.14896 0.38678,0 0.73943,-0.0796 0.36403,-0.091 0.75081,-0.3299 0.39816,-0.25027 0.68256,-0.63705 0.28439,-0.38678 0.46641,-1.03521 0.19339,-0.6598 0.19339,-1.51299 -0.60292,0.58017 -1.33098,0.58017 -0.46641,0 -1.12621,-0.26164 -0.65981,-0.27303 -1.04659,-0.27303 -0.55742,0 -0.91007,0.25027 l -0.13651,-0.21614 q 0.23889,-0.27302 0.67118,-0.47779 0.43228,-0.21614 0.80769,-0.21614 0.45503,0 1.08071,0.27303 0.63705,0.26164 1.00108,0.26164 0.71668,0 0.95557,-0.30715 0,-0.71668 -0.27302,-1.35373 -0.27302,-0.64843 -0.91007,-1.10346 -0.62568,-0.45504 -1.50162,-0.45504 z" />
    <path
       inkscape:connector-curvature="0"
       id="path4454"
       style="font-style:normal;font-variant:normal;font-weight:normal;font-stretch:normal;font-size:medium;line-height:125%;font-family:FreeSerif;-inkscape-font-specification:FreeSerif;letter-spacing:0px;word-spacing:0px;opacity:1;fill:#000000;fill-opacity:1;stroke:none;stroke-width:1px;stroke-linecap:butt;stroke-linejoin:miter;stroke-opacity:1"
       d="m 114.78024,113.37909 q 1.42199,0 2.4572,1.10346 1.0352,1.10347 1.0352,2.86673 0,1.74051 -0.95557,2.80985 -0.9442,1.06933 -2.60508,1.06933 -0.88732,0 -1.58125,-0.40953 -0.69393,-0.40953 -1.06934,-1.02383 -0.3754,-0.6143 -0.56879,-1.21722 -0.18202,-0.6143 -0.18202,-1.12622 l -1.25134,0 0,2.37757 q 0,0.60292 0.18201,0.78493 0.18202,0.18202 0.81906,0.2389 l 0,0.21614 -3.1625,0 0,-0.21614 q 0.65981,-0.0455 0.83044,-0.2389 0.17065,-0.19339 0.17065,-0.91007 l 0,-4.92576 q 0,-0.6143 -0.17065,-0.78494 -0.17063,-0.18202 -0.83044,-0.23889 l 0,-0.21614 3.1625,0 0,0.21614 q -0.6598,0.0569 -0.83044,0.23889 -0.17063,0.17064 -0.17063,0.78494 l 0,2.20692 1.25134,0 q 0,-1.42199 0.96696,-2.51407 0.96695,-1.09209 2.50269,-1.09209 z m -0.0227,7.43984 q 0.71668,0 1.23997,-0.54604 0.52329,-0.55743 0.75081,-1.31961 0.22752,-0.77356 0.22752,-1.61538 0,-0.83044 -0.17064,-1.47886 -0.15926,-0.65981 -0.40953,-1.03521 -0.2389,-0.3754 -0.55742,-0.6143 -0.30715,-0.25027 -0.5688,-0.3299 -0.26164,-0.091 -0.48916,-0.091 -0.22752,0 -0.47779,0.0796 -0.25027,0.0796 -0.56879,0.31852 -0.31853,0.2389 -0.5688,0.6143 -0.23889,0.36403 -0.40953,1.02383 -0.17064,0.65981 -0.17064,1.50162 0,0.79632 0.15927,1.43337 0.15926,0.62567 0.39815,1.00108 0.25027,0.3754 0.54604,0.62567 0.30716,0.25027 0.5688,0.34128 0.27302,0.091 0.50054,0.091 z" />
    <path
       inkscape:connector-curvature="0"
       id="path4456"
       style="font-style:normal;font-variant:normal;font-weight:normal;font-stretch:normal;font-size:medium;line-height:125%;font-family:FreeSerif;-inkscape-font-specification:FreeSerif;letter-spacing:0px;word-spacing:0px;opacity:1;fill:#000000;fill-opacity:1;stroke:none;stroke-width:1px;stroke-linecap:butt;stroke-linejoin:miter;stroke-opacity:1"
       d="m 124.85791,114.55256 q -2.27518,-0.29578 -2.27518,-1.79739 0,-0.59155 0.28439,-1.02384 0.2844,-0.44365 0.75081,-0.6598 0.46642,-0.22752 0.91008,-0.31852 0.45503,-0.10239 0.91007,-0.10239 l 3.13975,0 0,0.21615 q -0.63705,0.0683 -0.80769,0.25027 -0.15926,0.17064 -0.15926,0.77355 l 0,4.92577 q 0,0.70531 0.15926,0.91007 0.17064,0.19339 0.80769,0.2389 l 0,0.21614 -3.15113,0 0,-0.21614 q 0.6598,-0.0455 0.84182,-0.22752 0.18202,-0.18202 0.18202,-0.79631 l 0,-2.24106 -0.29578,0 q -0.42091,0 -0.60292,0.10239 -0.18202,0.10238 -0.45504,0.58017 l -1.61537,2.79847 -1.93391,0 0,-0.21614 q 0.27302,0 0.43229,-0.0228 0.15926,-0.0228 0.30714,-0.12514 0.14789,-0.10238 0.18202,-0.13651 0.0455,-0.0455 0.23889,-0.26164 0.20477,-0.22752 0.48917,-0.71669 0.2844,-0.50054 0.51191,-0.92144 0.22752,-0.42091 0.53467,-0.76219 0.31853,-0.35265 0.6143,-0.38678 l 0,-0.0796 z m 1.59263,-0.27303 0,-2.85535 q 0,-0.22751 -0.11377,-0.28439 -0.11375,-0.0683 -0.46641,-0.0683 -2.04766,0 -2.04766,1.76326 0,0.47779 0.3299,0.81907 0.3299,0.34127 0.75081,0.48916 0.43228,0.13651 0.87595,0.13651 l 0.67118,0 z" />
    <path
       inkscape:connector-curvature="0"
       id="path4464"
       style="font-style:normal;font-variant:normal;font-weight:normal;font-stretch:normal;font-size:medium;line-height:125%;font-family:FreeSerif;-inkscape-font-specification:FreeSerif;letter-spacing:0px;word-spacing:0px;opacity:1;fill:#000000;fill-opacity:1;stroke:none;stroke-width:1px;stroke-linecap:butt;stroke-linejoin:miter;stroke-opacity:1"
       d="m 147.99045,38.181912 q 0,0.511915 -0.11376,1.001079 -0.11376,0.489164 -0.42091,1.012455 -0.30715,0.523291 -0.78494,0.910072 -0.47778,0.375404 -1.2741,0.625674 -0.78493,0.25027 -1.78601,0.25027 l -3.23076,0 0,-0.216142 q 0.64843,-0.0455 0.81906,-0.227518 0.18202,-0.182014 0.18202,-0.796313 l 0,-5.050899 q 0,-0.625674 -0.17064,-0.796313 -0.15926,-0.170638 -0.83044,-0.227517 l 0,-0.216143 3.07149,0 q 1.03521,0 1.8429,0.238894 0.81907,0.227518 1.30823,0.602923 0.50054,0.364029 0.81906,0.875944 0.32991,0.500539 0.44366,0.989703 0.12514,0.489164 0.12514,1.023831 z m -1.23997,0.07963 q 0,-0.489163 -0.10239,-0.932823 -0.091,-0.455036 -0.34128,-0.910072 -0.25027,-0.466412 -0.64842,-0.796313 -0.39816,-0.329901 -1.04658,-0.534667 -0.64843,-0.216142 -1.47887,-0.216142 -0.35265,0 -0.47779,0.09101 -0.11376,0.09101 -0.11376,0.352653 l 0,5.778956 q 0,0.273021 0.12514,0.375404 0.12513,0.09101 0.46641,0.09101 3.61754,0 3.61754,-3.299011 z" />
    <path
       inkscape:connector-curvature="0"
       id="path4468"
       style="font-style:normal;font-variant:normal;font-weight:normal;font-stretch:normal;font-size:medium;line-height:125%;font-family:FreeSerif;-inkscape-font-specification:FreeSerif;letter-spacing:0px;word-spacing:0px;opacity:1;fill:#000000;fill-opacity:1;stroke:none;stroke-width:1px;stroke-linecap:butt;stroke-linejoin:miter;stroke-opacity:1"
       d="m 135.8288,72.540146 -0.26164,0 q -0.10239,-0.693929 -0.3299,-0.88732 -0.22752,-0.204766 -0.92145,-0.204766 l -1.64951,0 0,2.366187 q 0,0.69393 0.18202,0.898696 0.19339,0.204766 0.85319,0.238894 l 0,0.216142 -3.18525,0 0,-0.216142 q 0.64842,-0.0455 0.81906,-0.238894 0.17064,-0.204766 0.17064,-0.910072 l 0,-4.925764 q 0,-0.602922 -0.18201,-0.784937 -0.18202,-0.19339 -0.80769,-0.238893 l 0,-0.216143 6.0406,0 0.0341,1.626754 -0.2844,0 q -0.14788,-0.762185 -0.45503,-0.978327 -0.30715,-0.216142 -1.2741,-0.216142 l -1.54713,0 q -0.22751,0 -0.29577,0.07963 -0.0683,0.06826 -0.0683,0.307149 l 0,2.525449 1.6495,0 q 0.68256,0 0.91008,-0.19339 0.23889,-0.204766 0.34127,-0.88732 l 0.26165,0 0,2.639208 z" />
    <path
       inkscape:connector-curvature="0"
       id="path4470"
       style="font-style:normal;font-variant:normal;font-weight:normal;font-stretch:normal;font-size:medium;line-height:125%;font-family:FreeSerif;-inkscape-font-specification:FreeSerif;letter-spacing:0px;word-spacing:0px;opacity:1;fill:#000000;fill-opacity:1;stroke:none;stroke-width:1px;stroke-linecap:butt;stroke-linejoin:miter;stroke-opacity:1"
       d="m 129.76183,19.415855 q -0.64842,0 -1.14896,0.238894 -0.50054,0.227518 -0.80769,0.591546 -0.30715,0.364029 -0.50054,0.853193 -0.19339,0.489163 -0.27302,0.944199 -0.0683,0.44366 -0.0683,0.898696 0,1.58125 0.79631,2.502697 0.80769,0.910073 2.19555,0.910073 0.6143,0 1.05796,-0.193391 0.45503,-0.204766 0.45503,-0.477788 l 0,-1.842895 q 0,-0.63705 -0.18201,-0.796313 -0.17064,-0.170638 -0.81907,-0.216142 l 0,-0.204766 2.90086,0 0,0.204766 q -0.50054,0.0455 -0.64843,0.216142 -0.14789,0.159263 -0.14789,0.659802 l 0,2.309307 q -0.34127,0.295774 -1.23997,0.546044 -0.88732,0.250269 -1.61538,0.250269 -0.51191,0 -1.02383,-0.102383 -0.51191,-0.102383 -1.06933,-0.375405 -0.55742,-0.273021 -0.97833,-0.682553 -0.42091,-0.420908 -0.7053,-1.114838 -0.27303,-0.69393 -0.27303,-1.58125 0,-1.740512 1.09209,-2.866726 1.10346,-1.126214 2.80985,-1.126214 0.6598,0 1.29685,0.19339 0.64843,0.182015 0.75081,0.182015 0.18201,0 0.31852,-0.102383 0.13651,-0.11376 0.19339,-0.273022 l 0.25027,0 0.091,2.400314 -0.26164,0 q -0.36403,-0.88732 -0.91007,-1.410611 -0.54605,-0.534667 -1.53575,-0.534667 z" />
    <path
       inkscape:connector-curvature="0"
       id="path4476"
       style="font-style:normal;font-variant:normal;font-weight:normal;font-stretch:normal;font-size:medium;line-height:125%;font-family:FreeSerif;-inkscape-font-specification:FreeSerif;letter-spacing:0px;word-spacing:0px;opacity:1;fill:#000000;fill-opacity:1;stroke:none;stroke-width:1px;stroke-linecap:butt;stroke-linejoin:miter;stroke-opacity:1"
       d="m 106.70031,28.862059 q 0.2389,0 0.37541,0.147886 0.13651,0.147888 0.18201,0.329902 0.0455,0.182014 0.12514,0.329901 0.0796,0.147886 0.21614,0.147886 0.43228,0 0.43228,-0.750809 l 0,-5.267041 q 0,-0.625674 -0.18201,-0.796313 -0.18202,-0.182014 -0.87595,-0.227517 l 0,-0.216142 3.26489,0 0,0.216142 q -0.69393,0.0455 -0.87595,0.227517 -0.17064,0.170639 -0.17064,0.796313 l 0,4.209082 q 0,1.069335 -0.50054,1.660882 -0.50054,0.58017 -1.42198,0.58017 -0.48917,0 -0.80769,-0.227518 -0.31853,-0.227517 -0.31853,-0.591546 0,-0.227518 0.15927,-0.398157 0.17063,-0.170638 0.39815,-0.170638 z" />
    <path
       inkscape:connector-curvature="0"
       id="path4480"
       style="font-style:normal;font-variant:normal;font-weight:normal;font-stretch:normal;font-size:medium;line-height:125%;font-family:FreeSerif;-inkscape-font-specification:FreeSerif;letter-spacing:0px;word-spacing:0px;opacity:1;fill:#000000;fill-opacity:1;stroke:none;stroke-width:1px;stroke-linecap:butt;stroke-linejoin:miter;stroke-opacity:1"
       d="m 148.23775,77.25892 q 0.29577,0 0.54604,-0.03413 0.26164,-0.03413 0.45503,-0.06826 0.19339,-0.0455 0.37541,-0.13651 0.18201,-0.09101 0.29577,-0.147887 0.11376,-0.05688 0.22752,-0.182015 0.12514,-0.13651 0.18201,-0.19339 0.0683,-0.05688 0.14789,-0.204766 0.0796,-0.159262 0.10238,-0.204766 0.0228,-0.0455 0.091,-0.19339 0.0683,-0.159263 0.0683,-0.170639 l 0.28439,0 -0.54604,1.979406 -6.12023,0 0,-0.216142 q 0.62567,-0.0455 0.80769,-0.227518 0.18201,-0.19339 0.18201,-0.796312 l 0,-5.050899 q 0,-0.602923 -0.18201,-0.784937 -0.18202,-0.19339 -0.80769,-0.238894 l 0,-0.216142 3.208,0 0,0.216142 q -0.67118,0.0455 -0.86457,0.238894 -0.19339,0.182014 -0.19339,0.784937 l 0,5.3808 q 0,0.295773 0.17064,0.38678 0.18202,0.07963 0.80769,0.07963 l 0.76219,0 z" />
    <path
       inkscape:connector-curvature="0"
       id="path4490"
       style="font-style:normal;font-variant:normal;font-weight:normal;font-stretch:normal;font-size:medium;line-height:125%;font-family:FreeSerif;-inkscape-font-specification:FreeSerif;letter-spacing:0px;word-spacing:0px;opacity:1;fill:#000000;fill-opacity:1;stroke:none;stroke-width:1px;stroke-linecap:butt;stroke-linejoin:miter;stroke-opacity:1"
       d="m 132.27858,39.530486 q 0,0.625674 -0.13651,1.171717 -0.13651,0.546043 -0.35265,0.921448 -0.20477,0.364029 -0.50054,0.671178 -0.2844,0.307149 -0.55742,0.489163 -0.27302,0.182015 -0.58017,0.318525 -0.30715,0.136511 -0.50054,0.193391 -0.18202,0.0455 -0.35265,0.07963 0.69393,0.898696 1.42198,1.296852 0.72806,0.409533 1.70639,0.432284 l 0,0.204767 q -0.18202,0.01137 -0.46641,0.01137 -0.43229,0 -0.84182,-0.0455 -0.39816,-0.03413 -0.71668,-0.09101 -0.30715,-0.0455 -0.6143,-0.170638 -0.30715,-0.113759 -0.51192,-0.19339 -0.20476,-0.06826 -0.45503,-0.238894 -0.2389,-0.170638 -0.36403,-0.25027 -0.11376,-0.07963 -0.30715,-0.273021 -0.19339,-0.193391 -0.25027,-0.261646 -0.0569,-0.05688 -0.23889,-0.261646 -0.17064,-0.204766 -0.19339,-0.227517 -1.13759,-0.386781 -1.8884,-1.296853 -0.73944,-0.910072 -0.73944,-2.457194 0,-1.729136 1.04659,-2.832598 1.04658,-1.114838 2.67333,-1.114838 1.62675,0 2.67334,1.103462 1.04658,1.103462 1.04658,2.821223 z m -1.29685,-0.02275 q 0,-1.592626 -0.6598,-2.536826 -0.64843,-0.955575 -1.72914,-0.955575 -0.56879,0 -1.01245,0.238894 -0.44366,0.227518 -0.70531,0.591547 -0.26165,0.352653 -0.44366,0.83044 -0.17064,0.477788 -0.23889,0.921448 -0.0569,0.432284 -0.0569,0.88732 0,1.001079 0.22751,1.740512 0.22752,0.728058 0.60293,1.103462 0.3754,0.375405 0.76218,0.546043 0.39816,0.170639 0.83044,0.170639 0.55742,0 0.98971,-0.227518 0.44366,-0.238894 0.7053,-0.602923 0.26165,-0.364028 0.43228,-0.841816 0.17064,-0.489164 0.22752,-0.9442 0.0683,-0.455035 0.0683,-0.921447 z" />
    <path
       inkscape:connector-curvature="0"
       id="path4492"
       style="font-style:normal;font-variant:normal;font-weight:normal;font-stretch:normal;font-size:medium;line-height:125%;font-family:FreeSerif;-inkscape-font-specification:FreeSerif;letter-spacing:0px;word-spacing:0px;opacity:1;fill:#000000;fill-opacity:1;stroke:none;stroke-width:1px;stroke-linecap:butt;stroke-linejoin:miter;stroke-opacity:1"
       d="m 139.16718,85.102848 q 0.48916,0 0.93282,0.07963 0.44366,0.07963 0.91007,0.284397 0.47779,0.193391 0.76219,0.614299 0.28439,0.420908 0.28439,1.023831 0,1.512994 -2.00215,1.888399 -0.0341,0.01137 -0.0569,0.01137 l 2.34343,2.878103 q 0.2389,0.284397 0.44366,0.398156 0.21615,0.113759 0.54605,0.136511 l 0,0.216141 -1.83152,0 -2.70747,-3.503776 -0.63705,0.02275 0,2.241052 q 0,0.614299 0.18201,0.796313 0.18202,0.182014 0.84182,0.227518 l 0,0.216142 -3.15112,0 0,-0.216142 q 0.63705,-0.0455 0.79631,-0.238894 0.17064,-0.204766 0.17064,-0.910071 l 0,-4.925764 q 0,-0.602923 -0.17064,-0.773561 -0.15926,-0.182015 -0.79631,-0.25027 l 0,-0.216142 3.13975,0 z m -1.01246,3.628912 q 1.37649,-0.02275 2.01353,-0.364029 0.64843,-0.341277 0.64843,-1.285476 0,-0.796313 -0.51192,-1.171718 -0.50053,-0.38678 -1.56987,-0.38678 -0.34127,0 -0.46641,0.09101 -0.11376,0.07963 -0.11376,0.318525 l 0,2.798471 z" />
    <path
       inkscape:connector-curvature="0"
       id="path4494"
       style="font-style:normal;font-variant:normal;font-weight:normal;font-stretch:normal;font-size:medium;line-height:125%;font-family:FreeSerif;-inkscape-font-specification:FreeSerif;letter-spacing:0px;word-spacing:0px;opacity:1;fill:#000000;fill-opacity:1;stroke:none;stroke-width:1px;stroke-linecap:butt;stroke-linejoin:miter;stroke-opacity:1"
       d="m 114.59289,46.371707 q 0,-0.534667 -0.37541,-0.9442 -0.3754,-0.420908 -0.91007,-0.716681 -0.53466,-0.295774 -1.06933,-0.602923 -0.52329,-0.318525 -0.8987,-0.807689 -0.3754,-0.489163 -0.3754,-1.13759 0,-0.864568 0.58017,-1.399235 0.59155,-0.546043 1.38786,-0.546043 0.47779,0 1.0352,0.19339 0.55742,0.193391 0.67118,0.193391 0.29578,0 0.36403,-0.386781 l 0.2389,0 0.25027,2.423066 -0.2844,0 q -0.27302,-1.001079 -0.84182,-1.478866 -0.55742,-0.477788 -1.23997,-0.477788 -0.52329,0 -0.85319,0.295773 -0.3299,0.295773 -0.3299,0.762185 0,0.455036 0.38678,0.864568 0.38678,0.409533 1.28547,0.910072 1.12622,0.602923 1.62676,1.19447 0.50054,0.58017 0.50054,1.285476 0,0.875944 -0.67118,1.478867 -0.67118,0.591546 -1.64951,0.591546 -0.56879,0 -1.16034,-0.19339 -0.58017,-0.19339 -0.71668,-0.19339 -0.12514,0 -0.21614,0.113759 -0.091,0.102384 -0.10238,0.261646 l -0.25027,0 -0.34128,-2.41169 0.26164,0 q 0.42091,1.035207 0.97833,1.524371 0.55742,0.489163 1.31961,0.489163 0.62567,0 1.01245,-0.352653 0.38678,-0.364029 0.38678,-0.932823 z" />
    <path
       inkscape:connector-curvature="0"
       id="path4498"
       style="font-style:normal;font-variant:normal;font-weight:normal;font-stretch:normal;font-size:medium;line-height:125%;font-family:FreeSerif;-inkscape-font-specification:FreeSerif;letter-spacing:0px;word-spacing:0px;opacity:1;fill:#000000;fill-opacity:1;stroke:none;stroke-width:1px;stroke-linecap:butt;stroke-linejoin:miter;stroke-opacity:1"
       d="m 119.91714,59.170151 q 0,1.13759 0.4209,1.729137 0.43229,0.580171 1.53575,0.580171 0.63705,0 1.14897,-0.238894 0.51191,-0.25027 0.73943,-0.659802 0.26165,-0.489164 0.26165,-1.547122 l 0,-3.071492 q 0,-0.853193 -0.20477,-1.126214 -0.20477,-0.284398 -0.86457,-0.329901 l 0,-0.216143 2.63921,0 0,0.216143 q -0.70531,0.09101 -0.88732,0.341277 -0.18201,0.250269 -0.18201,1.114838 l 0,2.969109 q 0,0.671178 -0.12514,1.171717 -0.11376,0.50054 -0.42091,0.955575 -0.29577,0.44366 -0.8987,0.682554 -0.59154,0.238894 -1.46749,0.238894 -1.45611,0 -2.16142,-0.705305 -0.69393,-0.716682 -0.69393,-2.195549 l 0,-3.54928 q 0,-0.625674 -0.18201,-0.796313 -0.17064,-0.170638 -0.84182,-0.227517 l 0,-0.216143 3.21938,0 0,0.216143 q -0.68255,0.05688 -0.86456,0.238893 -0.17064,0.170639 -0.17064,0.784937 l 0,3.640287 z" />
    <path
       inkscape:connector-curvature="0"
       id="path4500"
       style="font-style:normal;font-variant:normal;font-weight:normal;font-stretch:normal;font-size:medium;line-height:125%;font-family:FreeSerif;-inkscape-font-specification:FreeSerif;letter-spacing:0px;word-spacing:0px;opacity:1;fill:#000000;fill-opacity:1;stroke:none;stroke-width:1px;stroke-linecap:butt;stroke-linejoin:miter;stroke-opacity:1"
       d="m 138.95983,54.306955 0,0.216143 q -0.42091,0.02275 -0.60293,0.204766 -0.17064,0.182014 -0.44365,0.853192 l -2.52546,6.381878 -0.17063,0 -2.79847,-6.245367 q -0.3299,-0.750809 -0.55743,-0.955576 -0.21614,-0.216142 -0.64842,-0.238893 l 0,-0.216143 3.02599,0 0,0.216143 q -0.31853,0.02275 -0.3299,0.02275 -0.52329,0.03413 -0.52329,0.352653 0,0.227518 0.46641,1.262725 l 1.71776,3.845053 1.67226,-4.174955 q 0.21614,-0.546042 0.21614,-0.83044 0,-0.238894 -0.18202,-0.341277 -0.18201,-0.113759 -0.64842,-0.136511 l 0,-0.216141 2.33206,0 z" />
    <path
       inkscape:connector-curvature="0"
       id="path4502"
       style="font-style:normal;font-variant:normal;font-weight:normal;font-stretch:normal;font-size:medium;line-height:125%;font-family:FreeSerif;-inkscape-font-specification:FreeSerif;letter-spacing:0px;word-spacing:0px;opacity:1;fill:#000000;fill-opacity:1;stroke:none;stroke-width:1px;stroke-linecap:butt;stroke-linejoin:miter;stroke-opacity:1"
       d="m 155.12442,54.306955 0,0.216142 q -0.45503,0.09101 -0.62567,0.227518 -0.15927,0.13651 -0.31853,0.58017 -0.9442,2.536826 -1.2741,3.481025 -0.3299,0.944199 -1.04658,3.151124 l -0.17064,0 -1.82014,-4.812005 -1.75189,4.812005 -0.17064,0 -2.19555,-6.108857 q -0.2844,-0.796313 -0.51191,-1.035207 -0.21615,-0.25027 -0.6598,-0.295773 l 0,-0.216142 2.78709,0 0,0.216142 q -0.43229,0.02275 -0.59155,0.102383 -0.14788,0.06825 -0.14788,0.261645 0,0.204767 0.12513,0.523292 l 1.63813,4.277337 1.21722,-3.208003 -0.3754,-0.932823 q -0.27302,-0.682554 -0.46641,-0.841817 -0.1934,-0.170638 -0.68256,-0.182014 l 0,-0.216142 3.03736,0 0,0.216142 q -0.87594,0.01137 -0.87594,0.398156 0,0.125135 0.30715,0.921448 l 1.50162,3.879181 1.42199,-3.856429 q 0.18201,-0.511916 0.18201,-0.853193 0,-0.227518 -0.18201,-0.329901 -0.17064,-0.113759 -0.60293,-0.159262 l 0,-0.216142 2.25243,0 z" />
    <path
       inkscape:connector-curvature="0"
       id="path4346-5"
       style="font-style:normal;font-variant:normal;font-weight:normal;font-stretch:normal;font-size:medium;line-height:125%;font-family:FreeSerif;-inkscape-font-specification:FreeSerif;letter-spacing:0px;word-spacing:0px;display:inline;opacity:1;fill:#000000;fill-opacity:1;stroke:none;stroke-width:1px;stroke-linecap:butt;stroke-linejoin:miter;stroke-opacity:1"
       d="m 77.743212,87.876565 q 0,0.341279 -0.12513,0.671179 -0.12514,0.3299 -0.42091,0.659804 -0.2844,0.318526 -0.85319,0.523289 -0.5688,0.193393 -1.35373,0.193393 l -3.79955,0 0,-0.216142 q 0.7053,-0.02274 0.89869,-0.204767 0.1934,-0.182014 0.1934,-0.819065 l 0,-5.050898 q 0,-0.625676 -0.1934,-0.796312 -0.18201,-0.182018 -0.89869,-0.22752 l 0,-0.216142 3.18525,0 q 2.98049,0 2.98049,1.933902 0,0.375407 -0.13652,0.671179 -0.13651,0.284398 -0.28439,0.443658 -0.13651,0.14789 -0.43229,0.284398 -0.29577,0.136512 -0.3754,0.159265 -0.0796,0.01139 -0.3299,0.07963 0.26164,0.06826 0.38678,0.102384 0.13651,0.03413 0.47778,0.193388 0.35266,0.159265 0.54605,0.341279 0.19339,0.182014 0.36403,0.523289 0.17063,0.329904 0.17063,0.750809 z m -3.5834,1.626756 q 0.51191,0 0.88732,-0.06826 0.3754,-0.06826 0.7053,-0.227517 0.3299,-0.170639 0.50054,-0.500539 0.18202,-0.329904 0.18202,-0.819065 0,-0.466412 -0.18202,-0.784937 -0.17064,-0.329901 -0.42091,-0.50054 -0.25027,-0.170639 -0.69392,-0.261644 -0.44367,-0.09101 -0.78494,-0.102384 -0.34128,-0.02274 -0.91007,-0.02274 l 0,2.821224 q 0,0.273023 0.14788,0.375402 0.14789,0.09101 0.5688,0.09101 z m -0.71668,-3.742672 1.0807,0 q 0.79632,0 1.2286,-0.352653 0.44366,-0.364029 0.44366,-1.035204 0,-0.762187 -0.51191,-1.160343 -0.51192,-0.398156 -1.49025,-0.398156 l -0.50054,0 q -0.25026,0 -0.25026,0.341275 l 0,2.605081 z" />
    <path
       inkscape:connector-curvature="0"
       id="path4352"
       style="font-style:normal;font-variant:normal;font-weight:normal;font-stretch:normal;font-size:medium;line-height:125%;font-family:FreeSerif;-inkscape-font-specification:FreeSerif;letter-spacing:0px;word-spacing:0px;display:inline;opacity:1;fill:#000000;fill-opacity:1;stroke:none;stroke-width:1px;stroke-linecap:butt;stroke-linejoin:miter;stroke-opacity:1"
       d="m 81.934345,96.981932 q 0,0.3299 0.182014,0.409534 0.193389,0.07963 1.012454,0.07963 l 0.307151,0 q 1.217221,0 1.74051,-0.284398 0.523292,-0.295772 0.944201,-1.217221 l 0.318526,0 -0.511918,1.922528 -6.142982,0 0,-0.216142 q 0.625672,-0.04551 0.807687,-0.227521 0.182014,-0.193388 0.182014,-0.796311 l 0,-5.050898 q 0,-0.602923 -0.182014,-0.784937 -0.182015,-0.193393 -0.807687,-0.238895 l 0,-0.216142 6.040602,0 0.03413,1.626755 -0.284398,0 q -0.14789,-0.762188 -0.455037,-0.97833 -0.307151,-0.216141 -1.274102,-0.216141 l -1.535746,0 q -0.227517,0 -0.307147,0.07963 -0.06826,0.06826 -0.06826,0.307151 l 0,2.525451 1.751888,0 q 0.728057,0 0.932824,-0.216142 0.216142,-0.227521 0.318525,-0.864572 l 0.261645,0 0,2.639209 -0.261645,0 q -0.113758,-0.705303 -0.3299,-0.898695 -0.216146,-0.193389 -0.921449,-0.193389 l -1.751888,0 0,2.809845 z" />
    <path
       inkscape:connector-curvature="0"
       id="path4848"
       style="font-style:normal;font-variant:normal;font-weight:normal;font-stretch:normal;font-size:medium;line-height:125%;font-family:FreeSerif;-inkscape-font-specification:FreeSerif;letter-spacing:0px;word-spacing:0px;display:inline;opacity:1;fill:#000000;fill-opacity:1;stroke:none;stroke-width:1px;stroke-linecap:butt;stroke-linejoin:miter;stroke-opacity:1"
       d="m 86.641918,69.199883 0,0.216142 q -0.55742,0.03413 -0.86457,0.227518 -0.295769,0.182015 -0.83044,0.841817 l -1.660879,2.070413 2.184169,3.116996 q 0.34128,0.489164 0.568801,0.63705 0.227519,0.147887 0.693929,0.204766 l 0,0.216143 -3.378639,0 0,-0.216143 q 0.466409,-0.0455 0.671179,-0.113759 0.204762,-0.07963 0.204762,-0.238893 0,-0.25027 -0.580172,-1.114838 l -1.08071,-1.592626 -1.35373,1.683633 q -0.59155,0.739433 -0.59155,0.978327 0,0.19339 0.18202,0.284397 0.18201,0.07963 0.68255,0.113759 l 0,0.216143 -2.65058,0 0,-0.216143 q 0.44365,-0.03413 0.682551,-0.216141 0.2389,-0.182015 0.966949,-1.080711 l 1.78602,-2.195548 -1.23998,-1.820144 q -0.79631,-1.171717 -1.14896,-1.46749 -0.34128,-0.295774 -0.91007,-0.318526 l 0,-0.216142 3.43552,0 0,0.216142 -0.31853,0.01138 q -0.54604,0.01137 -0.54604,0.329901 0,0.364029 0.96695,1.706385 l 0.47779,0.671178 1.285481,-1.569874 q 0.455029,-0.568795 0.455029,-0.784937 0,-0.19339 -0.17064,-0.261646 -0.15926,-0.07963 -0.62567,-0.102383 l 0,-0.216142 2.70746,0 z" />
    <path
       inkscape:connector-curvature="0"
       id="path4356"
       style="font-style:normal;font-variant:normal;font-weight:normal;font-stretch:normal;font-size:medium;line-height:125%;font-family:FreeSerif;-inkscape-font-specification:FreeSerif;letter-spacing:0px;word-spacing:0px;display:inline;opacity:1;fill:#000000;fill-opacity:1;stroke:none;stroke-width:1px;stroke-linecap:butt;stroke-linejoin:miter;stroke-opacity:1"
       d="m 94.943483,74.257537 3.446897,0 0,-2.20693 q 0,-0.6143 -0.170638,-0.78494 -0.170638,-0.18201 -0.830441,-0.23889 l 0,-0.21614 3.162499,0 0,0.21614 q -0.659801,0.0569 -0.83044,0.23889 -0.170638,0.17064 -0.170638,0.78494 l 0,5.0509 q 0,0.60292 0.182014,0.78494 0.182015,0.18201 0.819064,0.23889 l 0,0.21614 -3.162499,0 0,-0.21614 q 0.659803,-0.0455 0.830441,-0.23889 0.170638,-0.19339 0.170638,-0.91007 l 0,-2.2183 -3.446897,0 0,2.34343 q 0,0.60292 0.182015,0.78494 0.182014,0.18201 0.819064,0.23889 l 0,0.21614 -3.162499,0 0,-0.21614 q 0.659802,-0.0455 0.83044,-0.23889 0.170639,-0.19339 0.170639,-0.91007 l 0,-4.92577 q 0,-0.6143 -0.170639,-0.78494 -0.170638,-0.18201 -0.83044,-0.23889 l 0,-0.21614 3.162499,0 0,0.21614 q -0.659802,0.0569 -0.83044,0.23889 -0.170639,0.17064 -0.170639,0.78494 l 0,2.20693 z" />
    <path
       inkscape:connector-curvature="0"
       id="path4372"
       style="font-style:normal;font-variant:normal;font-weight:normal;font-stretch:normal;font-size:medium;line-height:125%;font-family:FreeSerif;-inkscape-font-specification:FreeSerif;letter-spacing:0px;word-spacing:0px;display:inline;opacity:1;fill:#000000;fill-opacity:1;stroke:none;stroke-width:1px;stroke-linecap:butt;stroke-linejoin:miter;stroke-opacity:1"
       d="m 65.699012,66.890012 q -1.53575,0 -2.59371,-1.08071 -1.05795,-1.092088 -1.05795,-2.843976 0,-1.717761 1.04658,-2.821219 1.04658,-1.103463 2.67333,-1.103463 1.63813,0 2.67334,1.103463 1.04658,1.092084 1.04658,2.866725 0,1.717761 -1.05796,2.79847 -1.04658,1.08071 -2.73021,1.08071 z m 2.49132,-3.890558 q 0,-0.819065 -0.15926,-1.456112 -0.15926,-0.637051 -0.40953,-1.023833 -0.2389,-0.386781 -0.5688,-0.637051 -0.3299,-0.250269 -0.64843,-0.341275 -0.30714,-0.09101 -0.63705,-0.09101 -0.55741,0 -1.00107,0.238896 -0.44366,0.238895 -0.70531,0.602923 -0.25027,0.352653 -0.42091,0.841814 -0.17064,0.489165 -0.23889,0.944202 -0.0569,0.443658 -0.0569,0.91007 0,0.58017 0.11376,1.137591 0.11376,0.557416 0.36403,1.114837 0.25027,0.55742 0.73943,0.898695 0.50054,0.341279 1.18309,0.341279 0.69393,0 1.19447,-0.341279 0.51192,-0.341275 0.76219,-0.898695 0.26164,-0.557421 0.3754,-1.114837 0.11376,-0.557421 0.11376,-1.126216 z" />
    <path
       inkscape:connector-curvature="0"
       id="path4384"
       style="font-style:normal;font-variant:normal;font-weight:normal;font-stretch:normal;font-size:medium;line-height:125%;font-family:FreeSerif;-inkscape-font-specification:FreeSerif;letter-spacing:0px;word-spacing:0px;display:inline;opacity:1;fill:#000000;fill-opacity:1;stroke:none;stroke-width:1px;stroke-linecap:butt;stroke-linejoin:miter;stroke-opacity:1"
       d="m 54.276169,78.066627 q 0,1.467491 -1.10346,2.070414 -1.06934,0.602919 -2.01354,0.602919 -0.11375,0 -0.27302,-0.02274 l 0,0.125132 q 0,0.455037 0.25027,0.72806 0.25027,0.261644 0.69393,0.261644 l 0.10238,0 0,0.17064 -3.2535,0 0,-0.17064 0.091,0.01139 q 0.9897,0 0.9897,-1.069334 l -0.0114,-0.05688 q -0.0569,0.01139 -0.15926,0.01139 -1.28548,0 -2.22968,-0.682554 -0.932821,-0.682554 -0.932821,-1.911149 0,-0.489165 0.18201,-0.910074 0.19339,-0.420909 0.51192,-0.705307 0.31852,-0.295772 0.72805,-0.489161 0.42091,-0.204767 0.86457,-0.295776 0.45504,-0.10238 0.91008,-0.10238 0.0796,0 0.12513,0.01139 0,-1.001079 -0.95557,-1.001079 l -0.13651,0 0,-0.170639 3.39001,0 0,0.170639 q -0.091,-0.02274 -0.14788,-0.02274 -0.55742,0 -0.76219,0.238895 -0.19339,0.227516 -0.25027,0.784937 0.0455,-0.01139 0.14789,-0.01139 0.58017,0 1.13759,0.147886 0.55742,0.147886 1.0352,0.432285 0.47779,0.273018 0.77357,0.762183 0.29577,0.477787 0.29577,1.092088 z m -1.20585,0.01139 q 0,-0.966951 -0.61429,-1.524371 -0.60293,-0.568796 -1.56988,-0.568796 l 0,4.413851 q 1.06934,0 1.62676,-0.614298 0.55741,-0.625676 0.55741,-1.706385 z m -3.32176,2.320684 0,-4.413851 q -1.01245,0 -1.58125,0.534668 -0.55741,0.534667 -0.55741,1.535746 0,2.343437 2.13866,2.343437 z" />
    <path
       inkscape:connector-curvature="0"
       id="path4366"
       style="font-style:normal;font-variant:normal;font-weight:normal;font-stretch:normal;font-size:medium;line-height:125%;font-family:FreeSerif;-inkscape-font-specification:FreeSerif;letter-spacing:0px;word-spacing:0px;display:inline;opacity:1;fill:#000000;fill-opacity:1;stroke:none;stroke-width:1px;stroke-linecap:butt;stroke-linejoin:miter;stroke-opacity:1"
       d="m 85.475898,57.308339 -2.912231,6.518393 -0.159259,0 -2.855349,-6.256744 0,4.584486 q 0,0.864567 0.204759,1.148965 0.20477,0.273023 0.86457,0.307151 l 0,0.216142 -2.673339,0 0,-0.216142 q 0.70531,-0.04551 0.8987,-0.307151 0.204759,-0.273023 0.204759,-1.148965 l 0,-4.618614 q 0,-0.625676 -0.193389,-0.796312 -0.18201,-0.182018 -0.88732,-0.22752 l 0,-0.216142 2.252429,0 2.62784,5.74483 2.51407,-5.74483 2.2638,0 0,0.216142 q -0.63705,0.05688 -0.81906,0.238895 -0.17064,0.182014 -0.17064,0.784937 l 0,5.050898 q 0,0.602923 0.18201,0.796311 0.18202,0.182014 0.80769,0.227521 l 0,0.216142 -3.18525,0 0,-0.216142 q 0.671179,-0.04551 0.85319,-0.238895 0.18202,-0.204767 0.18202,-0.91007 l 0,-5.153286 z" />
    <path
       inkscape:connector-curvature="0"
       id="path4380"
       style="font-style:normal;font-variant:normal;font-weight:normal;font-stretch:normal;font-size:medium;line-height:125%;font-family:FreeSerif;-inkscape-font-specification:FreeSerif;letter-spacing:0px;word-spacing:0px;display:inline;opacity:1;fill:#000000;fill-opacity:1;stroke:none;stroke-width:1px;stroke-linecap:butt;stroke-linejoin:miter;stroke-opacity:1"
       d="m 100.02804,59.677695 -0.6143,0 q -0.95557,0 -1.285467,0.261644 -0.31853,0.261645 -0.5233,1.194468 l -0.27302,0 0.0683,-1.933902 6.415997,0 0.0683,1.933902 -0.27302,0 q -0.1934,-0.944198 -0.5233,-1.194468 -0.31852,-0.261644 -1.28547,-0.261644 l -0.6143,0 0,5.813082 q 0,0.625676 0.19339,0.80769 0.19339,0.182014 0.8987,0.216142 l 0,0.216142 -3.32176,0 0,-0.216142 q 0.7053,-0.04551 0.88732,-0.227521 0.18201,-0.193388 0.18201,-0.921444 l 0,-5.687949 z" />
    <path
       inkscape:connector-curvature="0"
       id="path4374"
       style="font-style:normal;font-variant:normal;font-weight:normal;font-stretch:normal;font-size:medium;line-height:125%;font-family:FreeSerif;-inkscape-font-specification:FreeSerif;letter-spacing:0px;word-spacing:0px;display:inline;opacity:1;fill:#000000;fill-opacity:1;stroke:none;stroke-width:1px;stroke-linecap:butt;stroke-linejoin:miter;stroke-opacity:1"
       d="m 47.430752,99.9008 -3.1625,0 0,-0.216142 q 0.65981,-0.03413 0.83044,-0.25027 0.17064,-0.216142 0.17064,-0.898695 l 0,-5.6652 -3.44689,0 0,5.790333 q 0,0.602923 0.19339,0.796311 0.19339,0.193393 0.80768,0.227521 l 0,0.216142 -3.16249,0 0,-0.216142 q 0.6598,-0.03413 0.83044,-0.25027 0.17063,-0.216142 0.17063,-0.898695 l 0,-4.925765 q 0,-0.625676 -0.18201,-0.796312 -0.18201,-0.170639 -0.81906,-0.22752 l 0,-0.216142 7.76973,0 0,0.216142 q -0.62567,0.0455 -0.81906,0.22752 -0.18202,0.182014 -0.18202,0.796312 l 0,5.050898 q 0,0.602923 0.1934,0.796311 0.19339,0.193393 0.80768,0.227521 l 0,0.216142 z" />
    <path
       inkscape:connector-curvature="0"
       id="path4348"
       style="font-style:normal;font-variant:normal;font-weight:normal;font-stretch:normal;font-size:medium;line-height:125%;font-family:FreeSerif;-inkscape-font-specification:FreeSerif;letter-spacing:0px;word-spacing:0px;display:inline;opacity:1;fill:#000000;fill-opacity:1;stroke:none;stroke-width:1px;stroke-linecap:butt;stroke-linejoin:miter;stroke-opacity:1"
       d="m 66.073234,97.022791 -0.284397,0 q -0.06826,-0.420909 -0.193393,-0.671179 -0.125134,-0.25027 -0.375404,-0.352653 -0.238895,-0.113758 -0.477785,-0.136512 -0.22752,-0.03413 -0.682561,-0.03413 l -1.54712,0 q -0.22751,0 -0.29577,0.07963 -0.0683,0.07963 -0.0683,0.307151 l 0,5.471812 q 0,0.61429 0.20477,0.80769 0.20476,0.19339 0.83044,0.21614 l 0,0.21614 -3.18526,0 0,-0.21614 q 0.64843,-0.0341 0.81907,-0.25027 0.17064,-0.22752 0.17064,-0.8987 l 0,-4.925763 q 0,-0.602923 -0.19339,-0.784937 -0.18202,-0.193393 -0.79632,-0.238895 l 0,-0.216142 6.040607,0 0.03413,1.626755 z" />
    <path
       inkscape:connector-curvature="0"
       id="path4368"
       style="font-style:normal;font-variant:normal;font-weight:normal;font-stretch:normal;font-size:medium;line-height:125%;font-family:FreeSerif;-inkscape-font-specification:FreeSerif;letter-spacing:0px;word-spacing:0px;display:inline;opacity:1;fill:#000000;fill-opacity:1;stroke:none;stroke-width:1px;stroke-linecap:butt;stroke-linejoin:miter;stroke-opacity:1"
       d="m 73.700094,40.53021 q -0.31852,0.0341 -0.47779,0.0796 -0.14788,0.0341 -0.31852,0.17064 -0.15926,0.13651 -0.22752,0.43228 -0.0569,0.2844 -0.0569,0.77357 l 0,5.98372 -0.19339,0 -5.02815,-6.25675 0,4.45936 q 0,0.86456 0.20477,1.14896 0.20477,0.27303 0.86457,0.30715 l 0,0.21615 -2.67334,0 0,-0.21615 q 0.70531,-0.0455 0.8987,-0.30715 0.20476,-0.27302 0.20476,-1.14896 l 0,-5.01677 q -0.34127,-0.39816 -0.54604,-0.51192 -0.19339,-0.11376 -0.55742,-0.11376 l 0,-0.21614 1.94528,0 4.37972,5.50593 0,-3.83367 q 0,-0.86457 -0.21614,-1.12622 -0.20477,-0.27302 -0.87594,-0.3299 l 0,-0.21614 2.67333,0 0,0.21614 z" />
    <path
       inkscape:connector-curvature="0"
       id="path4852"
       style="font-style:normal;font-variant:normal;font-weight:normal;font-stretch:normal;font-size:medium;line-height:125%;font-family:FreeSerif;-inkscape-font-specification:FreeSerif;letter-spacing:0px;word-spacing:0px;display:inline;opacity:1;fill:#000000;fill-opacity:1;stroke:none;stroke-width:1px;stroke-linecap:butt;stroke-linejoin:miter;stroke-opacity:1"
       d="m 97.770975,47.475169 q 0.31852,0 0.58017,-0.05688 0.26165,-0.05688 0.432283,-0.113759 0.18201,-0.05688 0.3299,-0.216142 0.15927,-0.159263 0.22752,-0.238894 0.0796,-0.07963 0.17064,-0.307149 0.091,-0.238894 0.11376,-0.307149 0.0227,-0.06826 0.10238,-0.329901 l 0.26165,0 -0.27303,2.002158 -6.416003,0 0,-0.170639 4.97127,-6.927922 -2.51408,0 q -0.58017,0 -0.95557,0.113759 -0.37541,0.113759 -0.568801,0.364029 -0.182009,0.25027 -0.25027,0.455036 -0.0683,0.204766 -0.13651,0.580171 l -0.295769,0 0.227519,-1.945279 5.983724,0 0,0.170639 -4.914394,6.927922 2.92361,0 z" />
    <path
       inkscape:connector-curvature="0"
       id="path4362"
       style="font-style:normal;font-variant:normal;font-weight:normal;font-stretch:normal;font-size:medium;line-height:125%;font-family:FreeSerif;-inkscape-font-specification:FreeSerif;letter-spacing:0px;word-spacing:0px;display:inline;opacity:1;fill:#00b400;fill-opacity:1;stroke:none;stroke-width:1px;stroke-linecap:butt;stroke-linejoin:miter;stroke-opacity:1"
       d="m 83.892662,40.592745 0,-0.21614 2.98049,0 0,0.21614 q -0.59155,0.0455 -0.88732,0.19339 -0.2844,0.136511 -0.84182,0.693931 l -2.16142,2.138665 2.65059,2.843972 q 0.77356,0.830444 1.05795,1.023832 0.2844,0.193388 0.72806,0.204768 l 0,0.216142 -3.46965,0 0,-0.216142 q 0.0341,0 0.13651,0 0.10239,-0.01139 0.15927,-0.01139 0.0569,-0.01139 0.13651,-0.02274 0.091,-0.01139 0.14788,-0.02274 0.0569,-0.02274 0.10239,-0.0455 0.0569,-0.03413 0.0796,-0.06826 0.0341,-0.0455 0.0341,-0.09101 0,-0.204762 -0.42091,-0.750808 -0.40953,-0.546042 -1.05796,-1.183093 l -1.205849,-1.194468 -0.29577,0.238894 0,2.127291 q 0,0.625678 0.17064,0.807692 0.18201,0.170635 0.853189,0.216142 l 0,0.216142 -3.207999,0 0,-0.216142 q 0.67118,-0.04551 0.84182,-0.238895 0.18201,-0.204768 0.18201,-0.910071 l 0,-4.92576 q 0,-0.60292 -0.18201,-0.78494 -0.18202,-0.19339 -0.84182,-0.23889 l 0,-0.21614 3.230749,0 0,0.21614 q -0.693929,0.0455 -0.875939,0.22752 -0.17064,0.17063 -0.17064,0.79631 l 0,2.332053 2.013539,-1.831517 q 0.88732,-0.819066 0.88732,-1.171716 0,-0.17064 -0.113759,-0.23889 -0.102391,-0.0796 -0.364031,-0.10238 -0.15927,0 -0.29578,-0.0114 z" />
    <path
       inkscape:connector-curvature="0"
       id="path4360"
       style="font-style:normal;font-variant:normal;font-weight:normal;font-stretch:normal;font-size:medium;line-height:125%;font-family:FreeSerif;-inkscape-font-specification:FreeSerif;letter-spacing:0px;word-spacing:0px;display:inline;opacity:1;fill:#000000;fill-opacity:1;stroke:none;stroke-width:1px;stroke-linecap:butt;stroke-linejoin:miter;stroke-opacity:1"
       d="m 82.199633,28.930314 0,-5.050898 q 0,-0.625676 -0.19339,-0.796312 -0.18201,-0.182018 -0.91007,-0.22752 l 0,-0.216142 3.37864,0 0,0.216142 q -0.71668,0.03413 -0.92145,0.216142 -0.19339,0.182014 -0.19339,0.80769 l 0,5.050898 q 0,0.625676 0.20477,0.819065 0.20476,0.182014 0.91007,0.204767 l 0,0.216142 -3.37864,0 0,-0.216142 q 0.71668,-0.02274 0.91007,-0.204767 0.19339,-0.182014 0.19339,-0.819065 z" />
    <path
       inkscape:connector-curvature="0"
       id="path4428"
       style="font-style:normal;font-variant:normal;font-weight:normal;font-stretch:normal;font-size:medium;line-height:125%;font-family:FreeSerif;-inkscape-font-specification:FreeSerif;letter-spacing:0px;word-spacing:0px;display:inline;opacity:1;fill:#000000;fill-opacity:1;stroke:none;stroke-width:1px;stroke-linecap:butt;stroke-linejoin:miter;stroke-opacity:1"
       d="m 111.6876,92.359655 q 0,-1.77464 1.09208,-2.8781 1.09209,-1.11484 2.71884,-1.11484 0.72806,0 1.36511,0.1934 0.63705,0.18201 0.73943,0.18201 0.37541,0 0.47779,-0.37541 l 0.2389,0 0.10238,2.57096 -0.26165,0 q -0.62567,-2.11592 -2.44581,-2.11592 -1.23998,0 -1.97941,0.92145 -0.72806,0.92144 -0.72806,2.46857 0,0.9897 0.25027,1.71776 0.26165,0.71668 0.69393,1.09208 0.43229,0.36403 0.88732,0.53467 0.46641,0.15926 0.98971,0.15926 1.34235,0 2.53682,-1.14896 l 0.20477,0.20476 q -0.52329,0.69393 -1.33098,1.06934 -0.80769,0.3754 -1.77464,0.3754 -1.68364,0 -2.73022,-1.05796 -1.04658,-1.05795 -1.04658,-2.79847 z" />
  </g>
</svg>
